<?xml version="1.0" encoding="UTF-8"?>
<svg xmlns="http://www.w3.org/2000/svg" viewBox="0 0 1571.09 329.93">
	<defs>
		<style>
			.cls-1, .cls-2 { stroke-width: 0px; }
			.cls-2 { fill: none; }
		</style>
	</defs>
	<path class="cls-1" d="M24.94,209.2c3.81,30.17,7.62,60.34,11.43,90.51,8.85-1.12,17.7-2.14,26.57-3.06,11.95-1.24,23.91-2.3,35.89-3.18,58.67-4.31,117.58-4.31,176.25,0,11.97.88,23.93,1.94,35.88,3.18,8.87.92,17.72,1.94,26.58,3.06,3.81-30.17,7.62-60.34,11.43-90.51-107.58-13.59-216.44-13.59-324.03,0ZM200.88,244.7c-.1,7.19-6.34,12.96-13.93,12.96s-13.84-5.76-13.93-12.95c-.09-7.18,6.16-13.11,13.93-13.11s14.03,5.93,13.93,13.11Z" />
	<ellipse class="cls-1" cx="186.95" cy="244.63" rx="5.08" ry="4.74" />
	<path class="cls-1" d="M280.94,326.91c6.12.49,12.24,1.04,18.35,1.63.79-8.16,1.58-16.33,2.36-24.49-6.24-.6-12.49-1.15-18.74-1.66-.65,8.17-1.32,16.34-1.98,24.51Z" />
	<path class="cls-1" d="M181.47,145.13c0,2.62,2.46,4.73,5.48,4.73s5.47-2.11,5.48-4.73c.01-2.63-2.44-4.76-5.48-4.76-3.04,0-5.5,2.14-5.48,4.76Z" />
	<path class="cls-1" d="M0,11.76c3.81,30.17,7.62,60.34,11.43,90.5,116.55-14.72,234.49-14.72,351.05,0,3.81-30.17,7.62-60.34,11.43-90.5C249.76-3.92,124.14-3.92,0,11.76ZM186.95,58.64c-8.81,0-16.06-5.76-16.16-12.95-.1-7.18,7.15-13.12,16.16-13.12s16.26,5.94,16.15,13.12c-.09,7.19-7.34,12.95-16.15,12.95Z" />
	<path class="cls-1" d="M186.95,40.86c-3.26,0-5.9,2.14-5.89,4.76.01,2.63,2.65,4.74,5.89,4.74s5.87-2.11,5.88-4.74c.01-2.62-2.62-4.76-5.88-4.76Z" />
	<path class="cls-1" d="M72.24,304.05c.79,8.16,1.58,16.32,2.37,24.48,6.11-.59,12.23-1.14,18.35-1.63-.66-8.17-1.32-16.34-1.98-24.52-6.25.51-12.49,1.07-18.74,1.67Z" />
	<path class="cls-1" d="M12.47,110.49c3.81,30.17,7.62,60.33,11.43,90.5,108.27-13.68,217.83-13.68,326.1,0,3.81-30.17,7.62-60.33,11.43-90.5-115.85-14.64-233.1-14.64-348.96,0ZM201.99,145.2c-.1,7.18-6.84,12.95-15.05,12.95s-14.95-5.76-15.05-12.95c-.09-7.19,6.66-13.12,15.05-13.12,8.39,0,15.14,5.93,15.05,13.12Z" />
	<path class="cls-2" d="M1027.32,153.91c-1.11-.41-2.21-.77-3.29-1.06-2.47-.65-5.2-.98-8.19-.98-6.16,0-10.99,1.75-14.49,5.25s-5.25,8.42-5.25,14.77,1.56,11.36,4.69,14.77c3.13,3.41,7.26,5.11,12.39,5.11,3.83,0,7.51-.89,11.06-2.66,1.1-.55,2.12-1.16,3.08-1.81v-33.39Z" />
	<path class="cls-2" d="M764.4,89.44c-4.48,0-8.49,1.47-12.04,4.41-3.55,2.94-6.35,7.33-8.4,13.16-2.05,5.83-3.08,12.95-3.08,21.35,0,1,.02,1.97.04,2.94h35.94c4.95,0,7.42-2.29,7.42-6.86,0-11.95-1.8-20.77-5.39-26.46-3.59-5.69-8.42-8.54-14.49-8.54Z" />
	<path class="cls-2" d="M1503.45,109.67c-3.55-7.51-7.61-12.93-12.18-16.24-4.57-3.31-9.47-4.46-14.7-3.43-4.95.93-8.87,3.64-11.76,8.12-2.89,4.48-4.53,10.8-4.9,18.97-.37,8.17.61,18.32,2.94,30.45,2.33,11.67,5.3,21.28,8.89,28.84,3.59,7.56,7.65,12.97,12.18,16.24,4.53,3.27,9.4,4.43,14.63,3.5,4.95-.93,8.87-3.66,11.76-8.19,2.89-4.53,4.55-10.87,4.97-19.04.42-8.17-.58-18.27-3.01-30.31-2.33-11.76-5.27-21.4-8.82-28.91Z" />
	<path class="cls-1" d="M675.09,193.18l-6.02-1.96c-2.61-.84-4.46-1.94-5.53-3.29-1.07-1.35-1.7-3.71-1.89-7.07l-9.66-136.36c-.28-3.55.12-6.14,1.19-7.77,1.07-1.63,3.15-2.96,6.23-3.99l6.16-1.96c2.15-.75,3.78-1.84,4.9-3.29,1.12-1.45,1.68-3.24,1.68-5.39,0-2.61-.84-4.62-2.52-6.02-1.68-1.4-4.29-2.1-7.84-2.1h-47.32c-5.32,0-9.5,1.14-12.53,3.43-3.03,2.29-5.67,6.46-7.91,12.53l-38.03,99.68-39.95-100.23c-2.33-6.16-5.02-10.27-8.05-12.32-3.03-2.05-7.02-3.08-11.97-3.08h-46.76c-7,0-10.5,2.71-10.5,8.12,0,2.24.56,4.08,1.68,5.53,1.12,1.45,2.85,2.54,5.18,3.29l6.02,1.82c3.17,1.03,5.32,2.73,6.44,5.11s1.49,6,1.12,10.85l-10.64,127.54c-.37,4.2-1.54,7.42-3.5,9.66s-4.48,4.01-7.56,5.32l-4.2,1.54c-2.24,1.03-4.04,2.19-5.39,3.5-1.35,1.31-2.03,3.17-2.03,5.6s.84,4.5,2.52,5.95c1.68,1.45,4.29,2.17,7.84,2.17h42.84c3.55,0,6.16-.77,7.84-2.31,1.68-1.54,2.52-3.57,2.52-6.09,0-1.87-.44-3.38-1.33-4.55-.89-1.17-2.12-2.12-3.71-2.87l-5.32-2.38c-3.45-1.68-6.25-3.62-8.4-5.81-2.15-2.19-3.03-5.39-2.66-9.59l8.49-103.57,46.67,116.45c1.77,4.48,3.5,7.75,5.18,9.8,1.68,2.05,3.45,3.36,5.32,3.92,1.87.56,3.97.84,6.3.84,3.17,0,5.9-.82,8.19-2.45,2.29-1.63,4.5-5.39,6.65-11.27l44.86-118.16,8.34,108.92c.19,2.89-.23,5.09-1.26,6.58-1.03,1.49-3.08,2.75-6.16,3.78l-6.3,1.96c-2.43.75-4.15,1.87-5.18,3.36-1.03,1.49-1.54,3.27-1.54,5.32,0,2.52.86,4.5,2.59,5.95,1.73,1.45,4.41,2.17,8.05,2.17h72.66c3.55,0,6.16-.82,7.84-2.45,1.68-1.63,2.52-3.66,2.52-6.09,0-2.05-.51-3.78-1.54-5.18-1.03-1.4-2.57-2.43-4.62-3.08Z" />
	<path class="cls-1" d="M828.6,139.35c3.22-3.13,4.83-7.63,4.83-13.51,0-10.36-2.38-19.58-7.14-27.65-4.76-8.07-11.78-14.4-21.07-18.97-9.29-4.57-20.65-6.86-34.09-6.86-15.59,0-28.93,3.1-40.04,9.31-11.11,6.21-19.6,14.86-25.48,25.97-5.88,11.11-8.82,24.03-8.82,38.78,0,13.44,3.15,25.2,9.45,35.28,6.3,10.08,14.91,17.92,25.83,23.52,10.92,5.6,23.33,8.4,37.24,8.4,12.51,0,23.5-2.08,32.97-6.23,9.47-4.15,16.92-9.71,22.33-16.66,5.41-6.95,8.21-14.49,8.4-22.61,0-2.24-.37-4.18-1.12-5.81-.75-1.63-1.96-2.45-3.64-2.45-1.21,0-2.43.37-3.64,1.12-1.21.75-2.94,2.19-5.18,4.34-4.11,5.13-8.98,8.87-14.63,11.2-5.65,2.33-12.06,3.5-19.25,3.5-13.63,0-24.48-4.22-32.55-12.67-5.45-5.7-9.05-13.47-10.82-23.31h72.49c6.07,0,10.71-1.56,13.93-4.69ZM776.87,131.3h-35.94c-.03-.97-.04-1.94-.04-2.94,0-8.4,1.03-15.52,3.08-21.35,2.05-5.83,4.85-10.22,8.4-13.16,3.55-2.94,7.56-4.41,12.04-4.41,6.07,0,10.9,2.85,14.49,8.54,3.59,5.69,5.39,14.51,5.39,26.46,0,4.57-2.47,6.86-7.42,6.86Z" />
	<path class="cls-1" d="M923.72,195.56l-4.06-1.4c-1.59-.65-2.73-1.7-3.43-3.15-.7-1.45-1.05-3.85-1.05-7.21V11.04c0-3.17-.96-5.76-2.87-7.77-1.91-2.01-4.78-3.01-8.61-3.01-1.87,0-4.08.33-6.65.98-2.57.65-6.04,1.82-10.43,3.5l-28.42,10.78c-2.89,1.12-4.88,2.24-5.95,3.36-1.07,1.12-1.61,2.66-1.61,4.62,0,1.59.4,2.89,1.19,3.92.79,1.03,2.12,1.82,3.99,2.38l5.18.7c1.68.38,2.89,1.14,3.64,2.31.75,1.17,1.12,3.1,1.12,5.81v145.32c0,3.27-.35,5.62-1.05,7.07-.7,1.45-1.8,2.5-3.29,3.15l-4.34,1.4c-1.96.75-3.38,1.73-4.27,2.94-.89,1.21-1.33,2.66-1.33,4.34,0,2.24.72,3.99,2.17,5.25,1.45,1.26,3.8,1.89,7.07,1.89h59.5c3.17,0,5.51-.63,7-1.89,1.49-1.26,2.24-3.01,2.24-5.25,0-1.68-.44-3.13-1.33-4.34-.89-1.21-2.36-2.19-4.41-2.94Z" />
	<path class="cls-1" d="M1092.98,182.54c-.84,0-1.59.23-2.24.7-.65.47-1.26,1.03-1.82,1.68-.84.84-1.75,1.73-2.73,2.66-.98.93-2.36,1.4-4.13,1.4-1.96,0-3.43-.63-4.41-1.89-.98-1.26-1.47-2.96-1.47-5.11v-69.86c0-12.13-4.5-21.77-13.51-28.91-9.01-7.14-22.75-10.71-41.23-10.71-15.49,0-28.42,1.96-38.78,5.88s-18.15,8.84-23.38,14.77c-5.23,5.93-7.84,11.92-7.84,17.99,0,5.6,1.8,9.99,5.39,13.16,3.59,3.17,8.98,4.76,16.17,4.76,8.4,0,14.86-1.84,19.39-5.53,4.53-3.69,6.79-8.89,6.79-15.61v-13.86c0-2.61,1.21-4.81,3.64-6.58,2.43-1.77,5.6-2.66,9.52-2.66,4.67,0,8.33,1.45,10.99,4.34,2.66,2.89,3.99,6.86,3.99,11.9v41.1c-1.01-.26-2.06-.49-3.15-.71-4.53-.89-9.68-1.33-15.47-1.33-19.79,0-35.19,3.66-46.2,10.99-11.01,7.33-16.52,17.1-16.52,29.33,0,9.71,3.9,17.66,11.69,23.87,7.79,6.21,18.04,9.31,30.73,9.31,9.71,0,18.88-1.89,27.51-5.67,6.27-2.74,11.51-6.35,15.73-10.8,1.24,4.1,3.88,7.56,7.93,10.38,5.83,4.06,13.42,6.09,22.75,6.09,7.65,0,14.05-1.38,19.18-4.13,5.13-2.75,9.01-6.11,11.62-10.08,2.61-3.97,3.92-7.77,3.92-11.41,0-1.59-.33-2.89-.98-3.92-.65-1.03-1.68-1.54-3.08-1.54ZM1013.18,191.78c-5.13,0-9.26-1.7-12.39-5.11-3.13-3.41-4.69-8.33-4.69-14.77s1.75-11.27,5.25-14.77,8.33-5.25,14.49-5.25c2.99,0,5.72.33,8.19.98,1.08.29,2.18.65,3.29,1.06v33.39c-.96.66-1.98,1.26-3.08,1.81-3.55,1.77-7.23,2.66-11.06,2.66Z" />
	<path class="cls-1" d="M1273.3,195.56l-3.92-1.4c-1.59-.65-2.75-1.7-3.5-3.15-.75-1.45-1.12-3.9-1.12-7.35v-67.62c0-13.16-3.76-23.73-11.27-31.71-7.51-7.98-17.43-11.97-29.75-11.97-7.93,0-16.54,2.33-25.83,7-7.44,3.74-15.91,9.75-25.41,18.04v-13.84c0-3.17-.93-5.79-2.8-7.84-1.87-2.05-4.57-3.08-8.12-3.08-2.43,0-4.92.37-7.49,1.12-2.57.75-5.95,1.91-10.15,3.5l-28.42,10.78c-2.89,1.12-4.88,2.24-5.95,3.36-1.07,1.12-1.61,2.66-1.61,4.62,0,1.59.4,2.89,1.19,3.92.79,1.03,2.12,1.82,3.99,2.38l5.18.7c1.68.37,2.89,1.14,3.64,2.31.75,1.17,1.12,3.1,1.12,5.81v72.8c0,3.27-.35,5.62-1.05,7.07-.7,1.45-1.8,2.5-3.29,3.15l-4.34,1.4c-1.96.75-3.38,1.73-4.27,2.94-.89,1.21-1.33,2.66-1.33,4.34,0,2.24.72,3.99,2.17,5.25,1.45,1.26,3.8,1.89,7.07,1.89h57.96c6.25,0,9.38-2.52,9.38-7.56,0-2.99-1.49-5.23-4.48-6.72l-3.92-1.54c-1.59-.65-2.73-1.7-3.43-3.15-.7-1.45-1.05-3.85-1.05-7.21v-71.6l.56-.5c3.83-3.36,7.77-5.83,11.83-7.42,4.06-1.59,7.91-2.38,11.55-2.38,5.79,0,10.38,1.77,13.79,5.32,3.41,3.55,5.11,8.87,5.11,15.96v60.48c0,3.36-.35,5.79-1.05,7.28-.7,1.49-1.84,2.57-3.43,3.22l-4.06,1.54c-2.99,1.49-4.48,3.73-4.48,6.72,0,5.04,3.13,7.56,9.38,7.56h58.1c3.17,0,5.48-.63,6.93-1.89,1.45-1.26,2.17-3.01,2.17-5.25,0-1.68-.44-3.13-1.33-4.34-.89-1.21-2.31-2.19-4.27-2.94Z" />
	<path class="cls-1" d="M1391.87,169.38c-2.05,0-3.66.79-4.83,2.38-1.17,1.59-2.33,3.38-3.5,5.39-1.17,2.01-2.71,3.8-4.62,5.39-1.91,1.59-4.6,2.38-8.05,2.38-4.48,0-7.96-1.75-10.43-5.25-2.47-3.5-3.71-8.56-3.71-15.19v-71.4h20.16c6.72,0,11.55-1.03,14.49-3.08,2.94-2.05,4.41-4.57,4.41-7.56,0-2.05-.75-3.62-2.24-4.69-1.49-1.07-3.5-1.61-6.02-1.61h-30.8v-27.72c0-2.8-.65-4.97-1.96-6.51-1.31-1.54-3.13-2.31-5.46-2.31-2.15,0-4.34.65-6.58,1.96-2.24,1.31-4.62,3.36-7.14,6.16l-18.9,22.26c-2.05,2.33-3.85,3.94-5.39,4.83-1.54.89-3.29,1.33-5.25,1.33h-8.12c-2.52,0-4.57.61-6.16,1.82-1.59,1.21-2.38,2.94-2.38,5.18,0,1.68.49,3.1,1.47,4.27.98,1.17,2.59,2.12,4.83,2.87l5.32,1.82c2.24.84,3.85,1.87,4.83,3.08.98,1.21,1.47,3.13,1.47,5.74v72.24c0,13.44,3.78,23.5,11.34,30.17,7.56,6.67,18.15,10.01,31.78,10.01,9.05,0,17.1-1.66,24.15-4.97,7.05-3.31,12.58-7.75,16.59-13.3,4.01-5.55,6.02-11.64,6.02-18.27,0-2.71-.49-4.62-1.47-5.74s-2.26-1.68-3.85-1.68Z" />
	<path class="cls-1" d="M1554.97,106.31c-6.35-10.69-15.24-19.02-26.67-24.99-11.43-5.97-24.71-8.96-39.83-8.96s-28.91,3.06-40.53,9.17c-11.62,6.11-20.74,14.44-27.37,24.99-6.63,10.55-9.94,22.59-9.94,36.12s3.17,26.2,9.52,36.89c6.35,10.69,15.24,19.04,26.67,25.06,11.43,6.02,24.71,9.03,39.83,9.03s28.91-3.08,40.53-9.24c11.62-6.16,20.74-14.56,27.37-25.2,6.63-10.64,9.94-22.54,9.94-35.7,0-14.09-3.17-26.48-9.52-37.17ZM1515.28,168.89c-.42,8.17-2.08,14.51-4.97,19.04-2.89,4.53-6.81,7.26-11.76,8.19-5.23.93-10.1-.23-14.63-3.5-4.53-3.27-8.59-8.68-12.18-16.24-3.59-7.56-6.56-17.17-8.89-28.84-2.33-12.13-3.31-22.28-2.94-30.45.37-8.17,2.01-14.49,4.9-18.97,2.89-4.48,6.81-7.19,11.76-8.12,5.23-1.03,10.12.12,14.7,3.43,4.57,3.31,8.63,8.73,12.18,16.24,3.55,7.51,6.49,17.15,8.82,28.91,2.43,12.04,3.43,22.14,3.01,30.31Z" />
	<path class="cls-2" d="M485.32,269.9c-2.02-2.65-4.42-4.66-7.2-6.02-2.78-1.37-5.73-2.05-8.83-2.05h-6.15c-1,0-1.83.27-2.48.8s-1.12,1.32-1.42,2.35c-.33,1.47-.82,3.41-1.45,5.83-.63,2.42-1.38,5.14-2.23,8.17-.85,3.03-1.74,6.22-2.67,9.58-.93,3.35-1.87,6.69-2.8,10.02-.93,3.33-1.8,6.51-2.6,9.53-.8,3.02-1.48,5.72-2.05,8.12-.57,2.4-.95,4.32-1.15,5.75-.2,1.3-.08,2.28.35,2.92.43.65,1.25.98,2.45.98h6.9c4.67,0,9-.75,13-2.25s7.57-3.69,10.7-6.58c3.13-2.88,5.73-6.34,7.8-10.38,2.07-4.03,3.47-8.6,4.2-13.7.77-5,.73-9.43-.1-13.3-.83-3.87-2.26-7.12-4.28-9.78Z" />
	<path class="cls-2" d="M1108.29,288.25c-1.5-1.45-3.42-2.26-5.75-2.43-1.67-.13-3.29.08-4.88.65-1.58.57-3.09,1.45-4.52,2.65-1.43,1.2-2.76,2.68-3.98,4.45-1.22,1.77-2.27,3.8-3.17,6.1s-1.6,4.83-2.1,7.6c-.83,4.27-1.02,7.81-.55,10.62.47,2.82,1.43,4.95,2.88,6.4,1.45,1.45,3.26,2.27,5.43,2.47,1.7.13,3.37-.09,5-.67,1.63-.58,3.19-1.47,4.67-2.65,1.48-1.18,2.84-2.67,4.08-4.45,1.23-1.78,2.32-3.83,3.25-6.12.93-2.3,1.65-4.83,2.15-7.6.83-4.27,1-7.81.5-10.62-.5-2.82-1.5-4.95-3-6.4Z" />
	<path class="cls-2" d="M1057.96,269.9c-2.02-2.65-4.42-4.66-7.2-6.02s-5.72-2.05-8.82-2.05h-6.15c-1,0-1.83.27-2.47.8-.65.53-1.12,1.32-1.43,2.35-.33,1.47-.82,3.41-1.45,5.83-.63,2.42-1.38,5.14-2.23,8.17-.85,3.03-1.74,6.22-2.67,9.58-.93,3.35-1.87,6.69-2.8,10.02-.93,3.33-1.8,6.51-2.6,9.53-.8,3.02-1.48,5.72-2.05,8.12-.57,2.4-.95,4.32-1.15,5.75-.2,1.3-.08,2.28.35,2.92.43.65,1.25.98,2.45.98h6.9c4.67,0,9-.75,13-2.25s7.57-3.69,10.7-6.58c3.13-2.88,5.73-6.34,7.8-10.38s3.47-8.6,4.2-13.7c.77-5,.73-9.43-.1-13.3-.83-3.87-2.26-7.12-4.28-9.78Z" />
	<path class="cls-2" d="M783.74,288.25c-1.5-1.45-3.42-2.26-5.75-2.43-1.67-.13-3.29.08-4.88.65-1.58.57-3.09,1.45-4.52,2.65-1.43,1.2-2.76,2.68-3.98,4.45-1.22,1.77-2.27,3.8-3.17,6.1s-1.6,4.83-2.1,7.6c-.83,4.27-1.02,7.81-.55,10.62.47,2.82,1.43,4.95,2.88,6.4,1.45,1.45,3.26,2.27,5.43,2.47,1.7.13,3.37-.09,5-.67,1.63-.58,3.19-1.47,4.67-2.65,1.48-1.18,2.84-2.67,4.08-4.45,1.23-1.78,2.32-3.83,3.25-6.12.93-2.3,1.65-4.83,2.15-7.6.83-4.27,1-7.81.5-10.62-.5-2.82-1.5-4.95-3-6.4Z" />
	<path class="cls-2" d="M1158.84,285.88c-2.4,0-4.79.54-7.17,1.62-2.38,1.08-4.66,2.59-6.83,4.52-2.17,1.93-4.12,4.15-5.88,6.65s-3.17,5.19-4.27,8.08c-1.1,2.88-1.78,5.82-2.05,8.82-.33,3.73,0,6.38,1.02,7.93,1.02,1.55,2.49,2.32,4.42,2.32,1.7,0,3.54-.67,5.53-2.02,1.98-1.35,3.96-3.21,5.92-5.58,1.97-2.37,3.8-5.08,5.5-8.12s3.17-6.3,4.4-9.75c1.23-3.45,2.1-6.92,2.6-10.42.23-1.43.06-2.47-.52-3.1-.58-.63-1.48-.95-2.68-.95Z" />
	<path class="cls-2" d="M1317.89,285.88c-2.4,0-4.79.54-7.17,1.62-2.38,1.08-4.66,2.59-6.83,4.52-2.17,1.93-4.12,4.15-5.88,6.65s-3.17,5.19-4.27,8.08c-1.1,2.88-1.78,5.82-2.05,8.82-.33,3.73,0,6.38,1.02,7.93,1.02,1.55,2.49,2.32,4.42,2.32,1.7,0,3.54-.67,5.53-2.02,1.98-1.35,3.96-3.21,5.92-5.58,1.97-2.37,3.8-5.08,5.5-8.12s3.17-6.3,4.4-9.75c1.23-3.45,2.1-6.92,2.6-10.42.23-1.43.06-2.47-.52-3.1-.58-.63-1.48-.95-2.68-.95Z" />
	<path class="cls-2" d="M835.67,287.45c-1.08-.62-2.31-.92-3.68-.92-2,0-4.03.67-6.1,2.03-2.07,1.35-4.06,3.15-5.97,5.4-1.92,2.25-3.64,4.76-5.18,7.53-1.53,2.77-2.75,5.59-3.65,8.47-.9,2.88-1.35,5.62-1.35,8.23-.03,2.97.73,5.12,2.3,6.47,1.57,1.35,3.42,2.03,5.55,2.03,1.87,0,3.81-.57,5.83-1.7,2.02-1.13,3.96-2.7,5.82-4.7s3.55-4.31,5.05-6.92c1.5-2.62,2.69-5.42,3.57-8.4.88-2.98,1.33-5.99,1.33-9.02,0-2.3-.32-4.13-.95-5.5-.63-1.37-1.49-2.36-2.57-2.98Z" />
	<path class="cls-2" d="M586.19,285.88c-2.4,0-4.79.54-7.17,1.62-2.38,1.08-4.66,2.59-6.83,4.52-2.17,1.93-4.12,4.15-5.88,6.65s-3.17,5.19-4.27,8.08c-1.1,2.88-1.78,5.82-2.05,8.82-.33,3.73,0,6.38,1.02,7.93,1.02,1.55,2.49,2.32,4.42,2.32,1.7,0,3.54-.67,5.53-2.02,1.98-1.35,3.96-3.21,5.92-5.58,1.97-2.37,3.8-5.08,5.5-8.12s3.17-6.3,4.4-9.75c1.23-3.45,2.1-6.92,2.6-10.42.23-1.43.06-2.47-.52-3.1-.58-.63-1.48-.95-2.68-.95Z" />
	<path class="cls-2" d="M535.65,288.25c-1.5-1.45-3.42-2.26-5.75-2.43-1.67-.13-3.29.08-4.88.65-1.58.57-3.09,1.45-4.52,2.65-1.43,1.2-2.76,2.68-3.98,4.45-1.22,1.77-2.27,3.8-3.17,6.1s-1.6,4.83-2.1,7.6c-.83,4.27-1.02,7.81-.55,10.62.47,2.82,1.42,4.95,2.88,6.4,1.45,1.45,3.26,2.27,5.42,2.47,1.7.13,3.37-.09,5-.67,1.63-.58,3.19-1.47,4.68-2.65,1.48-1.18,2.84-2.67,4.07-4.45,1.23-1.78,2.32-3.83,3.25-6.12.93-2.3,1.65-4.83,2.15-7.6.83-4.27,1-7.81.5-10.62-.5-2.82-1.5-4.95-3-6.4Z" />
	<path class="cls-2" d="M941.74,285.88c-2.4,0-4.79.54-7.17,1.62-2.38,1.08-4.66,2.59-6.83,4.52-2.17,1.93-4.12,4.15-5.88,6.65s-3.17,5.19-4.27,8.08c-1.1,2.88-1.78,5.82-2.05,8.82-.33,3.73,0,6.38,1.02,7.93,1.02,1.55,2.49,2.32,4.42,2.32,1.7,0,3.54-.67,5.53-2.02,1.98-1.35,3.96-3.21,5.92-5.58,1.97-2.37,3.8-5.08,5.5-8.12s3.17-6.3,4.4-9.75c1.23-3.45,2.1-6.92,2.6-10.42.23-1.43.06-2.47-.52-3.1-.58-.63-1.48-.95-2.68-.95Z" />
	<path class="cls-2" d="M1461.43,285.88c-2.4,0-4.79.54-7.17,1.62-2.38,1.08-4.66,2.59-6.83,4.52-2.17,1.93-4.12,4.15-5.88,6.65s-3.17,5.19-4.27,8.08c-1.1,2.88-1.78,5.82-2.05,8.82-.33,3.73,0,6.38,1.02,7.93,1.02,1.55,2.49,2.32,4.42,2.32,1.7,0,3.54-.67,5.53-2.02,1.98-1.35,3.96-3.21,5.92-5.58,1.97-2.37,3.8-5.08,5.5-8.12s3.17-6.3,4.4-9.75c1.23-3.45,2.1-6.92,2.6-10.42.23-1.43.06-2.47-.52-3.1-.58-.63-1.48-.95-2.68-.95Z" />
	<path class="cls-2" d="M1545.81,296.75c.12-.78.17-1.73.17-2.83,0-2.4-.56-4.4-1.67-6-1.12-1.6-2.56-2.4-4.33-2.4s-3.67.67-5.62,2c-1.95,1.33-3.78,3.16-5.5,5.48s-3.15,5-4.3,8.05c-.72,1.9-1.23,3.89-1.57,5.96,1.17-.48,2.27-.93,3.32-1.36,2.08-.85,4.33-1.77,6.72-2.75,2.4-.98,4.76-1.96,7.08-2.92,2.06-.86,3.89-1.61,5.52-2.26.07-.31.13-.63.18-.97Z" />
	<path class="cls-1" d="M491.47,268.33c-2.62-3-5.8-5.31-9.55-6.92-3.75-1.62-7.84-2.42-12.27-2.42h-22.95c-.83,0-1.44.12-1.82.38-.38.25-.58.59-.58,1.03s.15.75.45.95c.3.2.85.38,1.65.55l2.85.6c1,.2,1.65.57,1.95,1.1.3.53.32,1.35.05,2.45-.27,1.47-.68,3.38-1.25,5.75-.57,2.37-1.23,5.01-2,7.92-.77,2.92-1.59,5.98-2.48,9.18-.88,3.2-1.77,6.4-2.65,9.6-.88,3.2-1.72,6.24-2.5,9.12-.78,2.88-1.48,5.49-2.1,7.83-.62,2.33-1.09,4.22-1.42,5.65-.37,1.03-.78,1.87-1.23,2.5-.45.63-.93,1.1-1.45,1.4-.52.3-1.09.5-1.73.6l-3.1.5c-.8.13-1.38.33-1.73.58s-.52.58-.52.98.12.72.38.97.71.38,1.38.38h24.55c5.73,0,11.08-.81,16.02-2.42,4.95-1.62,9.37-3.97,13.25-7.05,3.88-3.08,7.11-6.84,9.68-11.28,2.57-4.43,4.3-9.45,5.2-15.05.8-5.17.64-9.85-.48-14.05-1.12-4.2-2.98-7.8-5.6-10.8ZM489.7,292.98c-.73,5.1-2.13,9.67-4.2,13.7-2.07,4.03-4.67,7.49-7.8,10.38-3.13,2.88-6.7,5.08-10.7,6.58s-8.33,2.25-13,2.25h-6.9c-1.2,0-2.02-.33-2.45-.98-.43-.65-.55-1.62-.35-2.92.2-1.43.58-3.35,1.15-5.75.57-2.4,1.25-5.11,2.05-8.12.8-3.02,1.67-6.19,2.6-9.53.93-3.33,1.87-6.67,2.8-10.02.93-3.35,1.83-6.54,2.67-9.58.85-3.03,1.59-5.76,2.23-8.17.63-2.42,1.12-4.36,1.45-5.83.3-1.03.77-1.82,1.42-2.35s1.48-.8,2.48-.8h6.15c3.1,0,6.04.68,8.83,2.05,2.78,1.37,5.18,3.38,7.2,6.02,2.02,2.65,3.44,5.91,4.28,9.78.83,3.87.87,8.3.1,13.3Z" />
	<path class="cls-1" d="M539.7,285.65c-2.57-1.85-5.63-2.84-9.2-2.97-3.2-.13-6.26.38-9.17,1.52-2.92,1.15-5.58,2.83-7.98,5.03s-4.43,4.82-6.1,7.85c-1.67,3.03-2.83,6.35-3.5,9.95-.8,4.7-.67,8.73.4,12.1,1.07,3.37,2.86,5.96,5.38,7.77,2.52,1.82,5.49,2.81,8.93,2.98,3.23.17,6.33-.33,9.3-1.48,2.97-1.15,5.68-2.83,8.15-5.05s4.54-4.84,6.23-7.88c1.68-3.03,2.86-6.35,3.52-9.95.83-4.73.69-8.77-.42-12.1-1.12-3.33-2.96-5.92-5.52-7.78ZM538.15,305.28c-.5,2.77-1.22,5.3-2.15,7.6-.93,2.3-2.02,4.34-3.25,6.12-1.23,1.78-2.59,3.27-4.07,4.45-1.48,1.18-3.04,2.07-4.68,2.65-1.63.58-3.3.81-5,.67-2.17-.2-3.98-1.02-5.42-2.47-1.45-1.45-2.41-3.58-2.88-6.4-.47-2.82-.28-6.36.55-10.62.5-2.77,1.2-5.3,2.1-7.6s1.96-4.33,3.17-6.1c1.22-1.77,2.54-3.25,3.98-4.45,1.43-1.2,2.94-2.08,4.52-2.65,1.58-.57,3.21-.78,4.88-.65,2.33.17,4.25.98,5.75,2.43,1.5,1.45,2.5,3.58,3,6.4.5,2.82.33,6.36-.5,10.62Z" />
	<path class="cls-1" d="M597.02,284.6c-.75-.58-1.87-1.04-3.35-1.38-1.48-.33-3.33-.5-5.53-.5-3.43,0-6.81.6-10.12,1.8-3.32,1.2-6.42,2.88-9.33,5.03-2.9,2.15-5.49,4.64-7.77,7.47-2.28,2.83-4.13,5.88-5.55,9.12-1.42,3.25-2.26,6.58-2.53,9.98-.4,4.83.28,8.33,2.03,10.5s4.19,3.25,7.32,3.25,6.24-.98,9.33-2.93c3.08-1.95,6.01-4.8,8.78-8.55,1.38-1.87,2.68-3.94,3.91-6.22-.08.25-.16.51-.23.75-.75,2.43-1.33,4.42-1.72,5.95-.4,1.53-.68,2.77-.83,3.7-.15.93-.23,1.78-.23,2.55,0,1.6.42,2.79,1.25,3.57.83.78,2.03,1.18,3.6,1.18,1.93,0,3.86-.55,5.77-1.65s3.39-2.6,4.43-4.5c.3-.53.47-1,.5-1.4.03-.4-.12-.67-.45-.8-.27-.13-.56-.13-.88,0-.32.13-.73.43-1.23.9-1,.97-1.82,1.65-2.47,2.05s-1.31.6-1.97.6c-.83,0-1.37-.53-1.6-1.6-.23-1.07,0-3.02.7-5.85l6.9-27c.13-.57.38-1.05.75-1.45.37-.4.72-.79,1.05-1.17.33-.38.52-.86.55-1.43.03-.73-.33-1.39-1.08-1.97ZM589.4,289.93c-.5,3.5-1.37,6.97-2.6,10.42-1.23,3.45-2.7,6.7-4.4,9.75s-3.53,5.76-5.5,8.12c-1.97,2.37-3.94,4.22-5.92,5.58-1.98,1.35-3.83,2.02-5.53,2.02-1.93,0-3.41-.77-4.42-2.32-1.02-1.55-1.36-4.19-1.02-7.93.27-3,.95-5.94,2.05-8.82,1.1-2.88,2.52-5.58,4.27-8.08s3.71-4.72,5.88-6.65c2.17-1.93,4.44-3.44,6.83-4.52,2.38-1.08,4.78-1.62,7.17-1.62,1.2,0,2.09.32,2.68.95.58.63.76,1.67.52,3.1Z" />
	<path class="cls-1" d="M639.25,282.73c-2.17,0-4.32.67-6.45,2.03-2.13,1.35-4.18,3.22-6.15,5.62-1.93,2.35-3.68,5.1-5.26,8.23.02-.05.04-.1.06-.15.83-2.12,1.57-4.17,2.2-6.15.63-1.98.95-3.69.95-5.12s-.42-2.62-1.25-3.35c-.83-.73-1.98-1.1-3.45-1.1-1.37,0-2.71.25-4.03.75-1.32.5-2.53,1.22-3.62,2.15s-2,2.03-2.7,3.3c-.3.53-.47,1-.5,1.4-.03.4.12.67.45.8.27.13.56.12.88-.03.32-.15.72-.44,1.22-.88,1-1,1.85-1.7,2.55-2.1.7-.4,1.35-.6,1.95-.6.97,0,1.58.56,1.85,1.67.27,1.12-.05,3.04-.95,5.78l-8.4,26.35c-.67,2.03-1.03,3.68-1.1,4.95-.07,1.27.19,2.19.78,2.78.58.58,1.46.88,2.62.88,1.3,0,2.42-.16,3.35-.48.93-.32,1.65-.73,2.15-1.25.5-.52.75-1.07.75-1.67s-.13-1.08-.4-1.45c-.27-.37-.53-.76-.78-1.17-.25-.42-.38-.97-.38-1.67,0-1.07.18-2.27.55-3.6.37-1.33.92-3.17,1.65-5.5,1.77-5.53,3.77-10.26,6-14.18,2.23-3.92,4.48-6.91,6.73-8.97,2.25-2.07,4.22-3.1,5.92-3.1.93,0,1.61.27,2.02.8s.62,1.23.62,2.1c0,.73-.1,1.39-.3,1.98s-.3,1.19-.3,1.82.22,1.18.67,1.62c.45.45,1.14.68,2.08.68.83,0,1.61-.26,2.33-.78.72-.52,1.29-1.27,1.72-2.25.43-.98.67-2.16.7-3.53.03-2-.52-3.6-1.65-4.8s-2.83-1.8-5.1-1.8Z" />
	<path class="cls-1" d="M735.3,282.73c-1.9,0-4.03.45-6.38,1.35-2.35.9-4.8,2.37-7.35,4.4s-5.02,4.73-7.42,8.1c-.53.75-1.05,1.54-1.57,2.36.54-1.37,1.01-2.58,1.39-3.58.62-1.62,1.07-2.92,1.35-3.9.28-.98.44-1.88.48-2.67.13-2.07-.33-3.59-1.38-4.58-1.05-.98-2.68-1.47-4.88-1.47-2.47,0-5.38.82-8.73,2.45-3.35,1.63-6.72,4.37-10.12,8.2-1.53,1.72-2.97,3.73-4.35,5.99.77-1.9,1.41-3.53,1.93-4.87.68-1.78,1.18-3.25,1.5-4.4.32-1.15.47-2.16.47-3.03,0-1.47-.46-2.56-1.38-3.27s-2.14-1.08-3.67-1.08c-2.13,0-4.14.56-6.02,1.67-1.88,1.12-3.36,2.62-4.43,4.53-.3.53-.46,1-.47,1.4-.02.4.12.67.42.8s.61.12.92-.03.71-.44,1.18-.88c1-1,1.86-1.7,2.57-2.1.72-.4,1.36-.6,1.93-.6,1,0,1.62.56,1.85,1.67.23,1.12-.13,3.04-1.1,5.78l-9.2,26.15c-1.13,3.13-1.54,5.38-1.23,6.72s1.28,2.03,2.88,2.03c1.7,0,3.09-.34,4.18-1.03,1.08-.68,1.62-1.61,1.62-2.78,0-.73-.12-1.35-.35-1.85s-.35-1.15-.35-1.95c0-.43.07-.97.2-1.62.13-.65.41-1.61.82-2.88.42-1.27,1.01-3,1.78-5.2,2-5.67,4.4-10.33,7.2-14,2.8-3.67,5.62-6.4,8.45-8.2,2.83-1.8,5.25-2.7,7.25-2.7,1.63,0,2.66.72,3.07,2.17s0,3.97-1.27,7.58l-8.3,23.7c-.73,2.1-1.15,3.79-1.25,5.07-.1,1.28.1,2.22.6,2.8.5.58,1.27.88,2.3.88,1.73,0,3.14-.34,4.23-1.03,1.08-.68,1.62-1.61,1.62-2.78,0-.73-.12-1.35-.38-1.85s-.38-1.15-.38-1.95c0-.43.07-.97.22-1.62.15-.65.42-1.61.83-2.88.4-1.27.98-3,1.75-5.2,2-5.63,4.38-10.29,7.15-13.97,2.77-3.68,5.55-6.42,8.35-8.22,2.8-1.8,5.2-2.7,7.2-2.7,1.57,0,2.58.72,3.05,2.17.47,1.45.05,3.97-1.25,7.58l-7.5,21.45c-.83,2.4-1.23,4.42-1.2,6.05.03,1.63.49,2.87,1.38,3.7.88.83,2.14,1.25,3.78,1.25,2.13,0,4.13-.56,6-1.68,1.87-1.12,3.33-2.62,4.4-4.52.3-.53.46-1,.48-1.4.02-.4-.12-.67-.43-.8-.27-.13-.56-.13-.88,0-.32.13-.72.43-1.22.9-1,1-1.85,1.7-2.55,2.1s-1.35.6-1.95.6c-.97,0-1.58-.56-1.85-1.67-.27-1.12.1-3.04,1.1-5.77l7.3-20.75c1.03-2.93,1.63-5.46,1.8-7.58.17-2.12-.23-3.74-1.2-4.88-.97-1.13-2.63-1.7-5-1.7Z" />
	<path class="cls-1" d="M787.79,285.65c-2.57-1.85-5.63-2.84-9.2-2.97-3.2-.13-6.26.38-9.18,1.52-2.92,1.15-5.57,2.83-7.97,5.03s-4.43,4.82-6.1,7.85c-1.67,3.03-2.83,6.35-3.5,9.95-.8,4.7-.67,8.73.4,12.1,1.07,3.37,2.86,5.96,5.38,7.77,2.52,1.82,5.49,2.81,8.92,2.98,3.23.17,6.33-.33,9.3-1.48,2.97-1.15,5.68-2.83,8.15-5.05s4.54-4.84,6.23-7.88c1.68-3.03,2.86-6.35,3.52-9.95.83-4.73.69-8.77-.42-12.1-1.12-3.33-2.96-5.92-5.53-7.78ZM786.24,305.28c-.5,2.77-1.22,5.3-2.15,7.6-.93,2.3-2.02,4.34-3.25,6.12-1.23,1.78-2.59,3.27-4.08,4.45-1.48,1.18-3.04,2.07-4.67,2.65-1.63.58-3.3.81-5,.67-2.17-.2-3.98-1.02-5.43-2.47-1.45-1.45-2.41-3.58-2.88-6.4-.47-2.82-.28-6.36.55-10.62.5-2.77,1.2-5.3,2.1-7.6s1.96-4.33,3.17-6.1c1.22-1.77,2.54-3.25,3.98-4.45,1.43-1.2,2.94-2.08,4.52-2.65,1.58-.57,3.21-.78,4.88-.65,2.33.17,4.25.98,5.75,2.43,1.5,1.45,2.5,3.58,3,6.4.5,2.82.33,6.36-.5,10.62Z" />
	<path class="cls-1" d="M841.24,284.25c-1.63-.98-3.58-1.48-5.85-1.48-2.53,0-5.03.55-7.5,1.65-2.47,1.1-4.8,2.62-7,4.55-2.2,1.93-4.19,4.21-5.97,6.83-.31.46-.6.93-.89,1.4l8.37-28.93c1.03-3.67,1.19-6.42.47-8.27-.72-1.85-2.29-2.78-4.72-2.78-1.4,0-2.76.25-4.08.75-1.32.5-2.52,1.22-3.6,2.15-1.08.93-1.98,2.03-2.67,3.3-.3.53-.47,1-.5,1.4-.03.4.12.67.45.8.27.13.56.12.88-.03s.73-.44,1.23-.88c1-1,1.85-1.7,2.55-2.1.7-.4,1.35-.6,1.95-.6.97,0,1.58.56,1.85,1.67.27,1.12,0,3.06-.8,5.83l-15.6,55.2c-.3,1.13-.45,2.03-.45,2.67s.14,1.12.42,1.42c.28.3.66.45,1.12.45.43,0,.87-.14,1.3-.42.43-.28.92-.81,1.45-1.58l3.09-5.41c.42,2.13,1.4,3.85,2.96,5.16,2.27,1.9,5.13,2.85,8.6,2.85,3.23,0,6.5-.91,9.8-2.73,3.3-1.82,6.33-4.32,9.08-7.5,2.75-3.18,4.97-6.84,6.65-10.97,1.68-4.13,2.53-8.5,2.53-13.1,0-2.77-.44-5.1-1.33-7-.88-1.9-2.14-3.34-3.78-4.32ZM837.87,304.95c-.88,2.98-2.07,5.78-3.57,8.4-1.5,2.62-3.18,4.92-5.05,6.92s-3.81,3.57-5.82,4.7c-2.02,1.13-3.96,1.7-5.83,1.7-2.13,0-3.98-.67-5.55-2.03-1.57-1.35-2.33-3.51-2.3-6.47,0-2.6.45-5.34,1.35-8.23.9-2.88,2.12-5.71,3.65-8.47,1.53-2.77,3.26-5.28,5.18-7.53,1.92-2.25,3.91-4.05,5.97-5.4,2.07-1.35,4.1-2.03,6.1-2.03,1.37,0,2.59.31,3.68.92,1.08.62,1.94,1.61,2.57,2.98.63,1.37.95,3.2.95,5.5,0,3.03-.44,6.04-1.33,9.02Z" />
	<path class="cls-1" d="M873.24,260.53c-1.27,0-2.43.26-3.5.78-1.07.52-1.95,1.22-2.65,2.12-.7.9-1.15,1.9-1.35,3-.27,1.43.05,2.67.95,3.7.9,1.03,2.18,1.55,3.85,1.55,1.27,0,2.42-.27,3.47-.8s1.93-1.24,2.65-2.12c.72-.88,1.16-1.86,1.33-2.93.27-1.5-.02-2.76-.85-3.77s-2.13-1.53-3.9-1.53Z" />
	<path class="cls-1" d="M866.69,282.73c-2.1,0-4.08.56-5.95,1.67-1.87,1.12-3.33,2.62-4.4,4.53-.3.53-.46,1-.47,1.4-.02.4.12.67.42.8s.61.12.92-.03c.32-.15.71-.44,1.17-.88,1-1,1.86-1.7,2.58-2.1.72-.4,1.36-.6,1.92-.6,1,0,1.62.56,1.88,1.67.25,1.12-.12,3.04-1.12,5.78l-8.95,23.85c-.9,2.4-1.34,4.42-1.32,6.05.02,1.63.47,2.87,1.38,3.7.9.83,2.17,1.25,3.8,1.25,2.13,0,4.14-.56,6.02-1.67s3.36-2.62,4.43-4.52c.27-.53.42-1,.45-1.4s-.1-.67-.4-.8c-.3-.13-.61-.12-.92.02-.32.15-.71.44-1.18.88-1,1-1.85,1.7-2.55,2.1-.7.4-1.35.6-1.95.6-.97,0-1.58-.57-1.85-1.7-.27-1.13.1-3.05,1.1-5.75l8.85-23.7c.93-2.47,1.37-4.53,1.3-6.2-.07-1.67-.55-2.91-1.45-3.73-.9-.82-2.13-1.22-3.7-1.22Z" />
	<path class="cls-1" d="M899.89,257.23c-1.4,0-2.77.25-4.1.75-1.33.5-2.54,1.22-3.62,2.15-1.08.93-1.99,2.03-2.73,3.3-.27.53-.42,1-.45,1.4-.03.4.1.67.4.8s.61.12.92-.03.71-.44,1.18-.88c1-1,1.86-1.7,2.57-2.1.72-.4,1.36-.6,1.93-.6,1,0,1.65.56,1.95,1.67.3,1.12.02,3.06-.85,5.83l-15.1,48.45c-.87,2.83-1.29,5.12-1.28,6.88.02,1.75.5,3.03,1.45,3.83s2.34,1.2,4.17,1.2c2.07,0,4.07-.38,6-1.12,1.93-.75,3.61-1.73,5.03-2.95,1.42-1.22,2.36-2.53,2.82-3.92.23-.57.3-1.03.2-1.38-.1-.35-.33-.56-.7-.62-.23-.07-.47-.04-.72.07-.25.12-.51.36-.78.73-1.07,1.37-2.28,2.41-3.65,3.12-1.37.72-2.67,1.08-3.9,1.08-1.33,0-2.17-.57-2.5-1.7-.33-1.13.02-3.43,1.05-6.9l14.9-48c.73-2.43,1.06-4.47.97-6.12-.08-1.65-.56-2.88-1.42-3.7-.87-.82-2.12-1.22-3.75-1.22Z" />
	<path class="cls-1" d="M953.29,263.38c-.5,0-.98.33-1.45,1-1.5,2.63-3.15,4.55-4.95,5.75-1.8,1.2-3.82,1.8-6.05,1.8s-3.89-.59-5.08-1.78c-1.18-1.18-1.86-3.11-2.03-5.77-.1-.67-.4-1-.9-1-.3,0-.59.12-.88.38-.28.25-.48.62-.58,1.12-.77,3.7-.42,6.66,1.05,8.88s3.82,3.32,7.05,3.32,6.19-1.11,8.78-3.32c2.58-2.22,4.46-5.18,5.62-8.88.2-.5.23-.88.1-1.12s-.37-.38-.7-.38Z" />
	<path class="cls-1" d="M952.57,284.6c-.75-.58-1.87-1.04-3.35-1.38-1.48-.33-3.33-.5-5.53-.5-3.43,0-6.81.6-10.12,1.8-3.32,1.2-6.42,2.88-9.33,5.03-2.9,2.15-5.49,4.64-7.77,7.47-2.28,2.83-4.13,5.88-5.55,9.12-1.42,3.25-2.26,6.58-2.53,9.98-.4,4.83.28,8.33,2.03,10.5s4.19,3.25,7.32,3.25,6.24-.98,9.33-2.93c3.08-1.95,6.01-4.8,8.78-8.55,1.38-1.87,2.68-3.94,3.91-6.22-.08.25-.16.51-.23.75-.75,2.43-1.33,4.42-1.72,5.95-.4,1.53-.68,2.77-.83,3.7-.15.93-.23,1.78-.23,2.55,0,1.6.42,2.79,1.25,3.57.83.78,2.03,1.18,3.6,1.18,1.93,0,3.86-.55,5.77-1.65s3.39-2.6,4.43-4.5c.3-.53.47-1,.5-1.4.03-.4-.12-.67-.45-.8-.27-.13-.56-.13-.88,0-.32.13-.73.43-1.23.9-1,.97-1.82,1.65-2.47,2.05s-1.31.6-1.97.6c-.83,0-1.37-.53-1.6-1.6-.23-1.07,0-3.02.7-5.85l6.9-27c.13-.57.38-1.05.75-1.45.37-.4.72-.79,1.05-1.17.33-.38.52-.86.55-1.43.03-.73-.33-1.39-1.08-1.97ZM944.94,289.93c-.5,3.5-1.37,6.97-2.6,10.42-1.23,3.45-2.7,6.7-4.4,9.75s-3.53,5.76-5.5,8.12c-1.97,2.37-3.94,4.22-5.92,5.58-1.98,1.35-3.83,2.02-5.53,2.02-1.93,0-3.41-.77-4.42-2.32-1.02-1.55-1.36-4.19-1.02-7.93.27-3,.95-5.94,2.05-8.82,1.1-2.88,2.52-5.58,4.27-8.08s3.71-4.72,5.88-6.65c2.17-1.93,4.44-3.44,6.83-4.52,2.38-1.08,4.78-1.62,7.17-1.62,1.2,0,2.09.32,2.68.95.58.63.76,1.67.52,3.1Z" />
	<path class="cls-1" d="M966.94,319.23c-1.23,0-2.36.25-3.38.75-1.02.5-1.86,1.17-2.53,2-.67.83-1.1,1.77-1.3,2.8-.23,1.37.06,2.53.88,3.48.82.95,1.99,1.42,3.53,1.42,1.2,0,2.31-.25,3.33-.75,1.02-.5,1.85-1.17,2.5-2,.65-.83,1.06-1.73,1.22-2.7.27-1.43.03-2.62-.72-3.58s-1.93-1.42-3.53-1.42Z" />
	<path class="cls-1" d="M1064.11,268.33c-2.62-3-5.8-5.31-9.55-6.92-3.75-1.62-7.84-2.42-12.28-2.42h-22.95c-.83,0-1.44.12-1.83.38s-.57.59-.57,1.03.15.75.45.95c.3.2.85.38,1.65.55l2.85.6c1,.2,1.65.57,1.95,1.1.3.53.32,1.35.05,2.45-.27,1.47-.68,3.38-1.25,5.75-.57,2.37-1.23,5.01-2,7.92-.77,2.92-1.59,5.98-2.47,9.18-.88,3.2-1.77,6.4-2.65,9.6s-1.72,6.24-2.5,9.12c-.78,2.88-1.48,5.49-2.1,7.83-.62,2.33-1.09,4.22-1.42,5.65-.37,1.03-.78,1.87-1.23,2.5-.45.63-.93,1.1-1.45,1.4-.52.3-1.09.5-1.73.6l-3.1.5c-.8.13-1.38.33-1.73.58-.35.25-.52.58-.52.98s.12.72.38.97.71.38,1.38.38h24.55c5.73,0,11.08-.81,16.03-2.42,4.95-1.62,9.37-3.97,13.25-7.05,3.88-3.08,7.11-6.84,9.67-11.28,2.57-4.43,4.3-9.45,5.2-15.05.8-5.17.64-9.85-.48-14.05-1.12-4.2-2.98-7.8-5.6-10.8ZM1062.34,292.98c-.73,5.1-2.13,9.67-4.2,13.7s-4.67,7.49-7.8,10.38c-3.13,2.88-6.7,5.08-10.7,6.58s-8.33,2.25-13,2.25h-6.9c-1.2,0-2.02-.33-2.45-.98-.43-.65-.55-1.62-.35-2.92.2-1.43.58-3.35,1.15-5.75.57-2.4,1.25-5.11,2.05-8.12.8-3.02,1.67-6.19,2.6-9.53.93-3.33,1.87-6.67,2.8-10.02.93-3.35,1.83-6.54,2.67-9.58.85-3.03,1.59-5.76,2.23-8.17.63-2.42,1.12-4.36,1.45-5.83.3-1.03.78-1.82,1.43-2.35.65-.53,1.47-.8,2.47-.8h6.15c3.1,0,6.04.68,8.82,2.05s5.18,3.38,7.2,6.02c2.02,2.65,3.44,5.91,4.28,9.78.83,3.87.87,8.3.1,13.3Z" />
	<path class="cls-1" d="M1112.34,285.65c-2.57-1.85-5.63-2.84-9.2-2.97-3.2-.13-6.26.38-9.18,1.52-2.92,1.15-5.57,2.83-7.97,5.03s-4.43,4.82-6.1,7.85c-1.67,3.03-2.83,6.35-3.5,9.95-.8,4.7-.67,8.73.4,12.1,1.07,3.37,2.86,5.96,5.38,7.77,2.52,1.82,5.49,2.81,8.92,2.98,3.23.17,6.33-.33,9.3-1.48,2.97-1.15,5.68-2.83,8.15-5.05s4.54-4.84,6.23-7.88c1.68-3.03,2.86-6.35,3.52-9.95.83-4.73.69-8.77-.42-12.1-1.12-3.33-2.96-5.92-5.53-7.78ZM1110.79,305.28c-.5,2.77-1.22,5.3-2.15,7.6-.93,2.3-2.02,4.34-3.25,6.12-1.23,1.78-2.59,3.27-4.08,4.45-1.48,1.18-3.04,2.07-4.67,2.65-1.63.58-3.3.81-5,.67-2.17-.2-3.98-1.02-5.43-2.47-1.45-1.45-2.41-3.58-2.88-6.4-.47-2.82-.28-6.36.55-10.62.5-2.77,1.2-5.3,2.1-7.6s1.96-4.33,3.17-6.1c1.22-1.77,2.54-3.25,3.98-4.45,1.43-1.2,2.94-2.08,4.52-2.65,1.58-.57,3.21-.78,4.88-.65,2.33.17,4.25.98,5.75,2.43,1.5,1.45,2.5,3.58,3,6.4.5,2.82.33,6.36-.5,10.62Z" />
	<path class="cls-1" d="M1169.66,284.6c-.75-.58-1.87-1.04-3.35-1.38-1.48-.33-3.33-.5-5.53-.5-3.43,0-6.81.6-10.12,1.8-3.32,1.2-6.42,2.88-9.33,5.03-2.9,2.15-5.49,4.64-7.77,7.47-2.28,2.83-4.13,5.88-5.55,9.12-1.42,3.25-2.26,6.58-2.53,9.98-.4,4.83.28,8.33,2.03,10.5s4.19,3.25,7.32,3.25,6.24-.98,9.33-2.93c3.08-1.95,6.01-4.8,8.78-8.55,1.38-1.87,2.68-3.94,3.91-6.22-.08.25-.16.51-.23.75-.75,2.43-1.33,4.42-1.72,5.95-.4,1.53-.68,2.77-.83,3.7-.15.93-.23,1.78-.23,2.55,0,1.6.42,2.79,1.25,3.57.83.78,2.03,1.18,3.6,1.18,1.93,0,3.86-.55,5.77-1.65s3.39-2.6,4.43-4.5c.3-.53.47-1,.5-1.4.03-.4-.12-.67-.45-.8-.27-.13-.56-.13-.88,0-.32.13-.73.43-1.23.9-1,.97-1.82,1.65-2.47,2.05s-1.31.6-1.97.6c-.83,0-1.37-.53-1.6-1.6-.23-1.07,0-3.02.7-5.85l6.9-27c.13-.57.38-1.05.75-1.45.37-.4.72-.79,1.05-1.17.33-.38.52-.86.55-1.43.03-.73-.33-1.39-1.08-1.97ZM1162.04,289.93c-.5,3.5-1.37,6.97-2.6,10.42-1.23,3.45-2.7,6.7-4.4,9.75s-3.53,5.76-5.5,8.12c-1.97,2.37-3.94,4.22-5.92,5.58-1.98,1.35-3.83,2.02-5.53,2.02-1.93,0-3.41-.77-4.42-2.32-1.02-1.55-1.36-4.19-1.02-7.93.27-3,.95-5.94,2.05-8.82,1.1-2.88,2.52-5.58,4.27-8.08s3.71-4.72,5.88-6.65c2.17-1.93,4.44-3.44,6.83-4.52,2.38-1.08,4.78-1.62,7.17-1.62,1.2,0,2.09.32,2.68.95.58.63.76,1.67.52,3.1Z" />
	<path class="cls-1" d="M1211.89,282.73c-2.17,0-4.32.67-6.45,2.03-2.13,1.35-4.18,3.22-6.15,5.62-1.93,2.35-3.68,5.1-5.26,8.23.02-.05.04-.1.06-.15.83-2.12,1.57-4.17,2.2-6.15.63-1.98.95-3.69.95-5.12s-.42-2.62-1.25-3.35c-.83-.73-1.98-1.1-3.45-1.1-1.37,0-2.71.25-4.03.75-1.32.5-2.53,1.22-3.62,2.15s-2,2.03-2.7,3.3c-.3.53-.47,1-.5,1.4-.03.4.12.67.45.8.27.13.56.12.88-.03.32-.15.72-.44,1.22-.88,1-1,1.85-1.7,2.55-2.1.7-.4,1.35-.6,1.95-.6.97,0,1.58.56,1.85,1.67.27,1.12-.05,3.04-.95,5.78l-8.4,26.35c-.67,2.03-1.03,3.68-1.1,4.95-.07,1.27.19,2.19.78,2.78.58.58,1.46.88,2.62.88,1.3,0,2.42-.16,3.35-.48.93-.32,1.65-.73,2.15-1.25.5-.52.75-1.07.75-1.67s-.13-1.08-.4-1.45c-.27-.37-.53-.76-.78-1.17-.25-.42-.38-.97-.38-1.67,0-1.07.18-2.27.55-3.6.37-1.33.92-3.17,1.65-5.5,1.77-5.53,3.77-10.26,6-14.18,2.23-3.92,4.48-6.91,6.73-8.97,2.25-2.07,4.22-3.1,5.92-3.1.93,0,1.61.27,2.02.8s.62,1.23.62,2.1c0,.73-.1,1.39-.3,1.98s-.3,1.19-.3,1.82.22,1.18.67,1.62c.45.45,1.14.68,2.08.68.83,0,1.61-.26,2.33-.78.72-.52,1.29-1.27,1.72-2.25.43-.98.67-2.16.7-3.53.03-2-.52-3.6-1.65-4.8s-2.83-1.8-5.1-1.8Z" />
	<path class="cls-1" d="M1275.71,284.05c-1.68-.92-3.79-1.38-6.33-1.38-3.3,0-6.41.63-9.32,1.9-2.92,1.27-5.54,3.03-7.88,5.28-2.33,2.25-4.3,4.88-5.9,7.88s-2.73,6.22-3.4,9.65c-1.3,6.77-.7,12.21,1.8,16.32,2.5,4.12,6.7,6.18,12.6,6.18,3.07,0,5.77-.5,8.1-1.5s4.31-2.28,5.93-3.85c1.62-1.57,2.86-3.2,3.72-4.9.87-1.7,1.37-3.25,1.5-4.65.13-.67.1-1.16-.1-1.47-.2-.32-.5-.49-.9-.53-.33,0-.64.13-.92.4-.28.27-.59.7-.92,1.3-.7,2.33-1.8,4.31-3.3,5.92-1.5,1.62-3.18,2.83-5.05,3.65-1.87.82-3.73,1.24-5.6,1.27-3.63.03-6.33-1.52-8.1-4.67s-2.22-7.79-1.35-13.92c.57-4.03,1.77-7.66,3.6-10.88s4.02-5.76,6.55-7.62c2.53-1.87,5.12-2.8,7.75-2.8,1.8,0,3.2.47,4.2,1.4,1,.93,1.5,2.13,1.5,3.6,0,.83-.12,1.66-.35,2.47-.23.82-.37,1.59-.4,2.33,0,.8.28,1.47.83,2s1.29.8,2.23.8c1.17,0,2.21-.48,3.12-1.45.92-.97,1.39-2.37,1.42-4.2.03-1.8-.38-3.44-1.23-4.92-.85-1.48-2.12-2.68-3.8-3.6Z" />
	<path class="cls-1" d="M1328.71,284.6c-.75-.58-1.87-1.04-3.35-1.38-1.48-.33-3.33-.5-5.53-.5-3.43,0-6.81.6-10.12,1.8-3.32,1.2-6.42,2.88-9.33,5.03-2.9,2.15-5.49,4.64-7.77,7.47-2.28,2.83-4.13,5.88-5.55,9.12-1.42,3.25-2.26,6.58-2.53,9.98-.4,4.83.28,8.33,2.03,10.5s4.19,3.25,7.32,3.25,6.24-.98,9.33-2.93c3.08-1.95,6.01-4.8,8.78-8.55,1.38-1.87,2.68-3.94,3.91-6.22-.08.25-.16.51-.23.75-.75,2.43-1.33,4.42-1.72,5.95-.4,1.53-.68,2.77-.83,3.7-.15.93-.23,1.78-.23,2.55,0,1.6.42,2.79,1.25,3.57.83.78,2.03,1.18,3.6,1.18,1.93,0,3.86-.55,5.77-1.65s3.39-2.6,4.43-4.5c.3-.53.47-1,.5-1.4.03-.4-.12-.67-.45-.8-.27-.13-.56-.13-.88,0-.32.13-.73.43-1.23.9-1,.97-1.82,1.65-2.47,2.05s-1.31.6-1.97.6c-.83,0-1.37-.53-1.6-1.6-.23-1.07,0-3.02.7-5.85l6.9-27c.13-.57.38-1.05.75-1.45.37-.4.72-.79,1.05-1.17.33-.38.52-.86.55-1.43.03-.73-.33-1.39-1.08-1.97ZM1321.09,289.93c-.5,3.5-1.37,6.97-2.6,10.42-1.23,3.45-2.7,6.7-4.4,9.75s-3.53,5.76-5.5,8.12c-1.97,2.37-3.94,4.22-5.92,5.58-1.98,1.35-3.83,2.02-5.53,2.02-1.93,0-3.41-.77-4.42-2.32-1.02-1.55-1.36-4.19-1.02-7.93.27-3,.95-5.94,2.05-8.82,1.1-2.88,2.52-5.58,4.27-8.08s3.71-4.72,5.88-6.65c2.17-1.93,4.44-3.44,6.83-4.52,2.38-1.08,4.78-1.62,7.17-1.62,1.2,0,2.09.32,2.68.95.58.63.76,1.67.52,3.1Z" />
	<path class="cls-1" d="M1357.34,257.23c-1.4,0-2.77.25-4.1.75-1.33.5-2.54,1.22-3.62,2.15-1.08.93-1.99,2.03-2.73,3.3-.27.53-.42,1-.45,1.4-.03.4.1.67.4.8s.61.12.92-.03.71-.44,1.18-.88c1-1,1.86-1.7,2.57-2.1.72-.4,1.36-.6,1.93-.6,1,0,1.65.56,1.95,1.67.3,1.12.02,3.06-.85,5.83l-15.1,48.45c-.87,2.83-1.29,5.12-1.28,6.88.02,1.75.5,3.03,1.45,3.83s2.34,1.2,4.17,1.2c2.07,0,4.07-.38,6-1.12,1.93-.75,3.61-1.73,5.03-2.95,1.42-1.22,2.36-2.53,2.82-3.92.23-.57.3-1.03.2-1.38-.1-.35-.33-.56-.7-.62-.23-.07-.47-.04-.72.07-.25.12-.51.36-.78.73-1.07,1.37-2.28,2.41-3.65,3.12-1.37.72-2.67,1.08-3.9,1.08-1.33,0-2.17-.57-2.5-1.7-.33-1.13.02-3.43,1.05-6.9l14.9-48c.73-2.43,1.06-4.47.97-6.12-.08-1.65-.56-2.88-1.42-3.7-.87-.82-2.12-1.22-3.75-1.22Z" />
	<path class="cls-1" d="M1388.34,260.53c-1.27,0-2.43.26-3.5.78-1.07.52-1.95,1.22-2.65,2.12-.7.9-1.15,1.9-1.35,3-.27,1.43.05,2.67.95,3.7.9,1.03,2.18,1.55,3.85,1.55,1.27,0,2.42-.27,3.47-.8s1.93-1.24,2.65-2.12c.72-.88,1.16-1.86,1.33-2.93.27-1.5-.02-2.76-.85-3.77s-2.13-1.53-3.9-1.53Z" />
	<path class="cls-1" d="M1381.78,282.73c-2.1,0-4.08.56-5.95,1.67-1.87,1.12-3.33,2.62-4.4,4.53-.3.53-.46,1-.47,1.4-.02.4.12.67.42.8s.61.12.92-.03c.32-.15.71-.44,1.17-.88,1-1,1.86-1.7,2.58-2.1.72-.4,1.36-.6,1.92-.6,1,0,1.62.56,1.88,1.67.25,1.12-.12,3.04-1.12,5.78l-8.95,23.85c-.9,2.4-1.34,4.42-1.32,6.05.02,1.63.47,2.87,1.38,3.7.9.83,2.17,1.25,3.8,1.25,2.13,0,4.14-.56,6.02-1.67s3.36-2.62,4.43-4.52c.27-.53.42-1,.45-1.4s-.1-.67-.4-.8c-.3-.13-.61-.12-.92.02-.32.15-.71.44-1.18.88-1,1-1.85,1.7-2.55,2.1-.7.4-1.35.6-1.95.6-.97,0-1.58-.57-1.85-1.7-.27-1.13.1-3.05,1.1-5.75l8.85-23.7c.93-2.47,1.37-4.53,1.3-6.2-.07-1.67-.55-2.91-1.45-3.73-.9-.82-2.13-1.22-3.7-1.22Z" />
	<path class="cls-1" d="M1426.48,284.03h-10.86l1.71-5.45c.2-.63.35-1.19.45-1.67.1-.48.15-.88.15-1.17,0-.5-.12-.86-.35-1.08-.23-.22-.57-.33-1-.33-.4,0-.78.08-1.15.23-.37.15-.7.46-1,.92l-4.5,7.15c-.33.43-.72.77-1.15,1s-.95.35-1.55.35h-5.15c-.67,0-1.18.12-1.55.38s-.55.61-.55,1.08c0,.33.12.63.38.9.25.27.61.47,1.08.6l4.5.75c.77.17,1.21.53,1.33,1.1.12.57-.08,1.62-.58,3.15l-8.1,25.6c-.83,2.6-1.2,4.82-1.1,6.65.1,1.83.73,3.24,1.88,4.22,1.15.98,2.91,1.48,5.28,1.48,2.17,0,4.19-.33,6.08-1,1.88-.67,3.55-1.51,5-2.53,1.45-1.02,2.6-2.08,3.45-3.2.85-1.12,1.29-2.11,1.33-2.97.03-.33-.03-.6-.2-.8-.17-.2-.4-.3-.7-.3-.27,0-.51.07-.73.2-.22.13-.49.37-.83.7-1.6,1.8-3.15,3.07-4.65,3.8-1.5.73-3.12,1.1-4.85,1.1-1.93,0-3.18-.59-3.75-1.78-.57-1.18-.25-3.67.95-7.47l8.89-28.4h10.06c1.03,0,1.84-.17,2.42-.53.58-.35.88-.84.88-1.47,0-.8-.5-1.2-1.5-1.2Z" />
	<path class="cls-1" d="M1472.26,284.6c-.75-.58-1.87-1.04-3.35-1.38-1.48-.33-3.33-.5-5.53-.5-3.43,0-6.81.6-10.12,1.8-3.32,1.2-6.42,2.88-9.33,5.03-2.9,2.15-5.49,4.64-7.77,7.47-2.28,2.83-4.13,5.88-5.55,9.12-1.42,3.25-2.26,6.58-2.53,9.98-.4,4.83.28,8.33,2.03,10.5s4.19,3.25,7.32,3.25,6.24-.98,9.33-2.93c3.08-1.95,6.01-4.8,8.78-8.55,1.38-1.87,2.68-3.94,3.91-6.22-.08.25-.16.51-.23.75-.75,2.43-1.33,4.42-1.72,5.95-.4,1.53-.68,2.77-.83,3.7-.15.93-.23,1.78-.23,2.55,0,1.6.42,2.79,1.25,3.57.83.78,2.03,1.18,3.6,1.18,1.93,0,3.86-.55,5.77-1.65s3.39-2.6,4.43-4.5c.3-.53.47-1,.5-1.4.03-.4-.12-.67-.45-.8-.27-.13-.56-.13-.88,0-.32.13-.73.43-1.23.9-1,.97-1.82,1.65-2.47,2.05s-1.31.6-1.97.6c-.83,0-1.37-.53-1.6-1.6-.23-1.07,0-3.02.7-5.85l6.9-27c.13-.57.38-1.05.75-1.45.37-.4.72-.79,1.05-1.17.33-.38.52-.86.55-1.43.03-.73-.33-1.39-1.08-1.97ZM1464.63,289.93c-.5,3.5-1.37,6.97-2.6,10.42-1.23,3.45-2.7,6.7-4.4,9.75s-3.53,5.76-5.5,8.12c-1.97,2.37-3.94,4.22-5.92,5.58-1.98,1.35-3.83,2.02-5.53,2.02-1.93,0-3.41-.77-4.42-2.32-1.02-1.55-1.36-4.19-1.02-7.93.27-3,.95-5.94,2.05-8.82,1.1-2.88,2.52-5.58,4.27-8.08s3.71-4.72,5.88-6.65c2.17-1.93,4.44-3.44,6.83-4.52,2.38-1.08,4.78-1.62,7.17-1.62,1.2,0,2.09.32,2.68.95.58.63.76,1.67.52,3.1Z" />
	<path class="cls-1" d="M1512.34,284.03h-10.86l1.71-5.45c.2-.63.35-1.19.45-1.67.1-.48.15-.88.15-1.17,0-.5-.12-.86-.35-1.08-.23-.22-.57-.33-1-.33-.4,0-.78.08-1.15.23-.37.15-.7.46-1,.92l-4.5,7.15c-.33.43-.72.77-1.15,1s-.95.35-1.55.35h-5.15c-.67,0-1.18.12-1.55.38s-.55.61-.55,1.08c0,.33.12.63.38.9.25.27.61.47,1.08.6l4.5.75c.77.17,1.21.53,1.33,1.1.12.57-.08,1.62-.58,3.15l-8.1,25.6c-.83,2.6-1.2,4.82-1.1,6.65.1,1.83.73,3.24,1.88,4.22,1.15.98,2.91,1.48,5.28,1.48,2.17,0,4.19-.33,6.08-1,1.88-.67,3.55-1.51,5-2.53,1.45-1.02,2.6-2.08,3.45-3.2.85-1.12,1.29-2.11,1.33-2.97.03-.33-.03-.6-.2-.8-.17-.2-.4-.3-.7-.3-.27,0-.51.07-.73.2-.22.13-.49.37-.83.7-1.6,1.8-3.15,3.07-4.65,3.8-1.5.73-3.12,1.1-4.85,1.1-1.93,0-3.18-.59-3.75-1.78-.57-1.18-.25-3.67.95-7.47l8.89-28.4h10.06c1.03,0,1.84-.17,2.42-.53.58-.35.88-.84.88-1.47,0-.8-.5-1.2-1.5-1.2Z" />
	<path class="cls-1" d="M1553.98,294.68c-.4.07-.72-.03-.95-.28s-.37-.58-.4-.97c-.07-1.97-.53-3.77-1.38-5.4-.85-1.63-2.08-2.93-3.68-3.9-1.6-.97-3.53-1.45-5.8-1.45-3.27,0-6.43.83-9.5,2.47-3.07,1.65-5.83,3.9-8.3,6.75-2.47,2.85-4.47,6.09-6,9.73s-2.42,7.45-2.65,11.45c-.17,3.53.28,6.55,1.35,9.05,1.07,2.5,2.72,4.42,4.97,5.75,2.25,1.33,5.03,2,8.33,2,4.2,0,7.84-.72,10.92-2.15s5.54-3.28,7.38-5.55,2.93-4.63,3.3-7.1c.17-.73.13-1.27-.1-1.6-.23-.33-.55-.5-.95-.5-.33-.03-.63.06-.9.28-.27.22-.55.61-.85,1.17-.77,2.43-1.97,4.49-3.62,6.17-1.65,1.68-3.52,2.95-5.62,3.8-2.1.85-4.23,1.28-6.4,1.28-3.43,0-6.13-1.23-8.1-3.7s-2.8-6.18-2.5-11.15c.02-.31.06-.61.09-.92,1.37-.55,2.67-1.07,3.89-1.56,2.05-.82,4.31-1.72,6.77-2.7,2.47-.98,4.93-1.97,7.4-2.95,2.47-.98,4.74-1.89,6.83-2.72,2.08-.83,3.76-1.52,5.02-2.05,1.13-.43,1.89-.83,2.28-1.17.38-.35.58-.74.58-1.18,0-.33-.12-.59-.35-.77-.23-.18-.58-.23-1.05-.12ZM1540.11,299.98c-2.32.97-4.67,1.94-7.08,2.92-2.4.98-4.64,1.9-6.72,2.75-1.05.43-2.16.88-3.32,1.36.35-2.06.86-4.06,1.57-5.96,1.15-3.05,2.58-5.73,4.3-8.05s3.55-4.14,5.5-5.48c1.95-1.33,3.83-2,5.62-2s3.21.8,4.33,2.4c1.12,1.6,1.67,3.6,1.67,6,0,1.1-.06,2.04-.17,2.83-.05.34-.11.66-.18.97-1.63.65-3.46,1.4-5.52,2.26Z" />
	<path class="cls-1" d="M1570.26,320.65c-.75-.95-1.93-1.42-3.53-1.42-1.23,0-2.36.25-3.38.75-1.02.5-1.86,1.17-2.53,2-.67.83-1.1,1.77-1.3,2.8-.23,1.37.06,2.53.88,3.48.82.95,1.99,1.42,3.53,1.42,1.2,0,2.31-.25,3.33-.75,1.02-.5,1.85-1.17,2.5-2,.65-.83,1.06-1.73,1.22-2.7.27-1.43.03-2.62-.72-3.58Z" />
</svg>
