<?xml version="1.0" standalone="no"?>
<!DOCTYPE svg PUBLIC "-//W3C//DTD SVG 20010904//EN" "http://www.w3.org/TR/2001/REC-SVG-20010904/DTD/svg10.dtd">
<svg version="1.0" xmlns="http://www.w3.org/2000/svg" width="1066.000000pt" height="1066.000000pt" viewBox="0 0 1066.000000 1066.000000" preserveAspectRatio="xMidYMid meet">
<g transform="translate(0.000000,1066.000000) scale(0.100000,-0.100000)" fill="#000000" stroke="none">
<path d="M4528 10005 c-2 -2 -129 -6 -283 -10 -416 -10 -478 -12 -880 -31 -60
-3 -148 -7 -195 -9 -47 -2 -85 -4 -85 -5 0 -1 -38 -3 -85 -5 -126 -5 -263 -13
-370 -21 -52 -3 -111 -7 -130 -9 -167 -11 -251 -17 -285 -20 -22 -1 -83 -6
-135 -10 -52 -4 -113 -9 -135 -11 -22 -2 -80 -6 -130 -9 -49 -3 -106 -8 -125
-11 -19 -2 -62 -6 -95 -8 -33 -3 -60 -5 -60 -6 0 -2 -24 -4 -142 -12 -29 -1
-53 -5 -53 -8 0 -3 -21 -5 -48 -6 -50 0 -191 -12 -232 -19 -14 -2 -56 -7 -95
-10 -38 -3 -77 -7 -85 -10 -8 -2 -49 -6 -90 -10 -103 -9 -147 -13 -199 -20
-84 -11 -136 -17 -163 -18 -16 0 -28 -5 -28 -10 0 -5 -6 -4 -13 2 -8 6 -17 8
-20 5 -5 -5 -62 -14 -104 -17 -7 0 -13 -5 -13 -10 0 -5 -6 -4 -13 2 -8 6 -16
9 -18 7 -5 -5 -169 -28 -207 -29 -9 0 -11 -11 -7 -36 2 -20 7 -56 10 -81 2
-25 7 -63 10 -85 3 -22 8 -58 10 -80 2 -22 4 -40 5 -40 2 0 4 -15 14 -110 4
-33 8 -71 10 -85 3 -14 7 -50 11 -80 3 -30 8 -66 10 -80 2 -14 7 -50 10 -80 3
-30 8 -66 10 -80 6 -40 17 -122 20 -160 2 -19 4 -35 5 -35 1 0 3 -16 5 -35 3
-31 8 -68 21 -165 2 -16 6 -50 8 -75 3 -25 8 -61 10 -80 3 -19 8 -55 11 -80 3
-25 8 -61 11 -80 2 -19 7 -55 9 -80 3 -25 7 -56 9 -70 2 -14 7 -52 11 -85 3
-33 8 -71 10 -85 6 -43 14 -103 20 -150 10 -80 16 -134 20 -165 2 -16 7 -52
10 -80 2 -27 8 -68 11 -90 17 -115 28 -209 25 -222 -1 -7 9 -10 26 -7 59 8
259 32 273 32 8 0 33 3 55 6 47 7 109 14 167 20 24 2 68 7 98 11 54 6 68 7
185 20 33 3 74 8 91 10 17 2 68 7 114 11 46 3 92 7 103 10 11 2 54 6 95 10 42
3 83 7 92 9 16 3 131 13 235 21 268 20 266 19 263 57 0 12 2 58 6 102 4 44 9
105 12 135 2 30 7 75 9 100 3 25 7 79 10 120 3 41 8 95 10 120 2 25 7 83 11
130 3 47 8 88 10 92 2 4 0 9 -6 13 -7 4 -7 12 0 24 5 10 7 21 4 24 -3 2 -7 31
-9 63 -6 88 -29 164 -62 204 -27 33 -77 78 -88 80 -5 1 -21 10 -35 19 -14 10
-83 35 -155 56 -161 49 -180 56 -232 94 -53 38 -86 90 -102 158 -13 55 -10
140 7 183 5 14 10 28 11 33 0 4 16 23 35 41 39 40 114 76 171 85 54 8 1789 7
1840 -1 108 -17 224 -69 298 -135 40 -35 107 -124 107 -142 0 -6 3 -11 8 -11
6 0 47 -81 92 -185 13 -31 222 -557 265 -670 5 -11 8 -23 7 -27 -1 -3 5 -12
13 -18 8 -7 15 -20 15 -30 0 -16 17 -60 61 -157 10 -24 19 -49 19 -56 0 -7 6
-21 14 -32 7 -11 15 -24 16 -30 7 -29 17 -55 44 -117 9 -20 16 -39 16 -43 0
-3 11 -31 25 -61 14 -30 25 -58 25 -62 0 -4 336 -7 748 -7 411 0 770 -2 797
-5 71 -8 82 -3 96 38 6 20 15 42 19 47 3 6 21 51 39 100 36 99 43 118 59 155
15 33 53 132 57 145 1 6 5 17 8 25 4 8 39 101 78 205 126 334 192 508 224 590
5 11 9 22 10 25 10 33 63 134 101 192 44 69 144 181 144 162 0 -5 4 -4 8 2 20
28 142 81 232 99 19 4 443 9 941 10 992 2 980 3 1066 -57 49 -33 91 -99 95
-146 1 -18 6 -32 10 -32 4 0 5 -7 1 -15 -3 -9 -6 -33 -7 -53 0 -20 -5 -43 -9
-49 -5 -7 -6 -13 -2 -13 14 0 -40 -86 -76 -120 -45 -43 -191 -105 -314 -135
-5 -1 -18 -5 -27 -9 -9 -4 -23 -9 -32 -10 -8 -1 -19 -6 -23 -10 -4 -4 -22 -14
-39 -21 -83 -35 -138 -115 -150 -222 -7 -66 -7 -57 0 -143 3 -36 8 -101 11
-145 3 -44 8 -114 11 -155 12 -175 15 -208 18 -270 3 -58 17 -237 22 -282 1
-10 2 -25 3 -33 0 -8 11 -15 24 -14 24 0 121 -8 307 -26 88 -9 109 -10 215
-19 44 -4 91 -9 105 -12 14 -2 54 -6 90 -9 63 -5 91 -8 175 -20 38 -4 61 -7
192 -20 29 -3 72 -8 95 -11 24 -3 61 -7 83 -9 22 -2 58 -6 80 -9 116 -16 222
-29 244 -30 15 -1 18 9 26 84 5 45 8 70 19 145 3 22 8 60 11 85 5 53 15 133
21 175 2 17 6 46 8 65 6 53 17 142 21 170 2 14 7 50 10 80 4 30 9 63 10 72 2
9 6 43 10 75 3 32 8 71 11 87 3 16 7 48 9 70 2 23 7 61 10 86 4 25 8 63 10 85
2 22 5 40 6 40 0 0 3 18 4 40 4 45 13 120 15 120 1 0 3 10 15 115 4 30 8 61
10 70 2 8 6 44 10 80 4 36 8 72 10 80 2 8 6 44 10 80 3 36 9 73 11 83 3 9 7
45 9 80 2 34 5 62 6 62 1 0 3 9 4 20 11 87 17 134 20 155 5 35 14 106 20 165
3 28 8 62 11 77 3 14 1 28 -3 31 -5 3 -40 8 -78 12 -39 4 -81 8 -95 11 -14 2
-45 6 -70 9 -25 3 -61 8 -80 10 -19 3 -62 7 -95 11 -33 4 -71 8 -85 9 -14 2
-25 4 -25 5 0 1 -22 3 -50 5 -54 4 -138 12 -195 20 -19 3 -57 7 -85 10 -27 2
-70 7 -95 9 -25 3 -70 8 -100 11 -30 3 -77 8 -105 11 -47 6 -93 10 -210 19
-27 2 -50 4 -50 5 0 1 -25 3 -55 5 -30 3 -84 7 -120 11 -36 3 -74 6 -85 6 -10
-1 -25 4 -32 10 -9 7 -13 7 -13 -1 0 -7 -4 -10 -9 -6 -5 3 -43 7 -83 10 -40 3
-98 7 -128 10 -30 3 -87 8 -125 10 -39 3 -100 7 -135 10 -107 8 -190 14 -275
20 -44 3 -111 8 -150 11 -38 2 -113 7 -165 9 -52 3 -131 7 -175 10 -44 3 -129
7 -190 10 -60 3 -150 7 -200 10 -49 2 -147 6 -217 9 -70 2 -132 7 -138 11 -5
3 -10 1 -10 -5 0 -6 -4 -9 -10 -5 -5 3 -74 8 -153 10 -79 3 -222 8 -318 11
-181 6 -1915 14 -1921 9z"/>
<path d="M5066 7173 c-1 -1 -84 -3 -184 -4 -101 -1 -185 -5 -187 -9 -3 -4 20
-68 51 -141 30 -74 55 -136 56 -139 1 -7 11 -33 77 -197 34 -83 61 -153 61
-155 0 -3 10 -27 22 -54 12 -27 23 -52 24 -56 1 -5 3 -11 4 -15 1 -5 2 -11 1
-15 0 -5 3 -8 9 -8 5 0 9 -3 8 -7 -2 -10 8 -36 33 -89 10 -23 19 -46 19 -51 0
-5 18 -51 39 -101 22 -51 41 -96 42 -100 3 -15 125 -325 144 -367 7 -16 41
-101 76 -189 l63 -158 33 88 c18 49 36 96 40 104 3 8 7 17 8 20 2 11 46 126
55 145 23 52 80 204 80 215 0 8 8 22 18 33 9 11 11 17 3 12 -9 -5 -9 -1 3 17
8 13 17 33 19 43 2 11 10 34 17 50 7 17 14 32 15 35 1 3 7 18 13 33 7 16 12
35 12 43 0 8 4 14 8 14 5 0 9 6 9 13 0 6 28 84 62 172 35 88 64 165 65 170 2
6 8 24 15 40 6 17 19 50 28 75 9 25 21 50 26 57 5 7 6 17 2 23 -3 5 -2 10 3
10 8 0 17 20 27 60 0 3 11 32 23 65 29 76 29 78 30 89 0 5 4 12 9 15 7 5 31
62 36 86 2 6 6 16 10 23 5 6 6 12 3 12 -2 0 4 17 14 38 10 20 16 39 14 41 -6
6 -1052 20 -1058 14z"/>
<path d="M6858 7143 c-10 -3 -18 -11 -18 -19 0 -8 -4 -22 -10 -32 -10 -18 -65
-163 -102 -267 -11 -33 -24 -64 -29 -69 -5 -6 -9 -17 -9 -25 0 -9 -6 -28 -14
-42 -11 -21 -45 -113 -51 -139 -1 -3 -6 -16 -12 -30 -43 -101 -98 -254 -95
-262 1 -5 -3 -8 -8 -8 -6 0 -10 -6 -10 -13 0 -6 -20 -64 -44 -127 -24 -63 -83
-218 -131 -345 -47 -126 -93 -244 -101 -262 -8 -17 -14 -38 -14 -46 0 -9 -4
-18 -9 -21 -5 -3 -12 -17 -15 -30 -3 -14 -11 -38 -18 -53 -6 -15 -12 -32 -14
-38 -1 -5 -8 -23 -15 -40 -6 -16 -13 -34 -15 -40 -1 -5 -28 -75 -59 -155 -85
-221 -106 -274 -109 -285 -2 -5 -8 -23 -15 -40 -6 -16 -19 -50 -28 -75 -9 -25
-21 -51 -26 -57 -5 -7 -7 -13 -3 -13 3 0 2 -10 -3 -22 l-9 -23 147 -2 c80 -1
245 -5 366 -8 121 -4 257 -8 303 -8 45 -1 82 -5 82 -10 0 -4 8 -3 19 2 10 6
21 8 23 5 3 -2 69 -7 146 -10 l141 -5 -5 37 c-2 20 -6 78 -9 128 -2 50 -5 91
-6 91 -2 0 -8 69 -13 145 -3 41 -8 111 -11 155 -8 109 -13 177 -19 260 -3 39
-7 102 -11 140 -3 39 -8 99 -10 135 -3 36 -7 88 -9 115 -5 51 -13 157 -22 275
-2 36 -6 90 -9 120 -3 30 -7 91 -10 135 -3 44 -8 109 -11 145 -10 124 -13 156
-29 390 -2 30 -6 80 -9 110 -3 30 -8 91 -11 135 -5 81 -17 105 -47 98z"/>
<path d="M2749 7083 c0 -5 -2 -17 -4 -28 -2 -11 -7 -60 -11 -110 -7 -103 -10
-134 -18 -225 -4 -36 -9 -99 -11 -140 -3 -41 -7 -97 -10 -125 -3 -27 -8 -84
-10 -125 -2 -41 -5 -75 -6 -75 -2 0 -5 -32 -13 -145 -4 -47 -9 -112 -12 -145
-3 -33 -7 -87 -9 -120 -2 -33 -6 -82 -9 -110 -6 -58 -16 -175 -22 -255 -6 -85
-17 -218 -29 -355 -13 -149 -19 -225 -19 -262 -1 -24 -3 -43 -6 -43 -3 0 -5
-19 -6 -43 -1 -40 -10 -173 -19 -268 l-4 -45 32 2 c61 5 192 14 277 20 47 3
112 7 145 9 33 3 105 7 160 10 55 3 129 7 165 10 36 2 126 7 200 10 252 11
313 14 316 18 4 4 -20 70 -51 142 -7 17 -43 107 -80 200 -37 94 -71 179 -76
190 -25 58 -79 190 -79 196 0 4 -10 28 -22 55 -12 27 -21 52 -20 57 1 4 -3 7
-9 7 -5 0 -7 5 -4 10 4 6 3 16 -2 23 -5 7 -22 44 -37 82 -15 39 -32 79 -37 90
-4 11 -21 54 -37 95 -16 41 -33 84 -37 95 -5 11 -9 22 -10 25 -1 3 -9 22 -18
42 -10 21 -17 40 -17 43 0 3 -8 24 -19 48 -10 23 -35 85 -56 137 -21 52 -43
109 -51 125 -7 17 -16 41 -20 55 -4 14 -17 48 -30 75 -12 28 -74 181 -137 340
-64 160 -121 304 -128 320 -7 17 -13 32 -14 35 -16 49 -26 60 -55 60 -16 0
-30 -3 -31 -7z"/>
<path d="M2028 7034 c-2 -1 -37 -5 -78 -8 -41 -4 -97 -8 -125 -11 -27 -2 -81
-6 -120 -10 -38 -3 -88 -8 -110 -10 -22 -3 -67 -7 -100 -10 -33 -3 -76 -8 -95
-10 -19 -2 -69 -6 -110 -10 -41 -3 -87 -8 -101 -10 -15 -3 -55 -7 -90 -10 -35
-3 -77 -7 -94 -10 -29 -4 -94 -11 -185 -20 -25 -2 -61 -7 -80 -9 -19 -3 -57
-8 -85 -12 -27 -3 -61 -7 -75 -9 -102 -12 -140 -16 -175 -19 l-40 -4 1 -43 c0
-24 4 -71 8 -104 4 -33 9 -77 11 -98 2 -21 7 -55 10 -75 4 -21 8 -55 11 -77 2
-22 6 -60 9 -85 3 -25 8 -61 10 -80 2 -19 9 -71 15 -115 18 -134 20 -148 25
-194 3 -24 8 -60 10 -80 8 -58 17 -132 30 -241 4 -30 8 -68 11 -85 2 -16 6
-46 9 -65 2 -19 6 -53 9 -75 3 -22 8 -62 11 -90 6 -49 13 -105 20 -155 2 -14
7 -47 10 -75 5 -46 11 -94 21 -170 5 -41 11 -90 19 -155 3 -30 8 -66 10 -80 2
-14 6 -47 10 -75 3 -27 7 -61 9 -75 9 -56 30 -237 30 -257 0 -26 21 -36 62
-29 16 3 58 8 94 11 36 4 72 9 81 10 9 2 40 6 70 10 92 10 122 14 179 21 75 9
94 11 180 18 41 4 86 9 100 11 14 2 57 7 95 10 39 4 88 9 110 11 59 7 166 16
198 18 15 0 28 4 28 8 1 5 2 12 3 17 0 5 4 13 8 16 4 4 3 15 -2 25 -5 10 -6
20 -2 24 3 4 7 24 8 44 1 20 5 71 8 112 4 41 9 104 12 140 3 36 7 85 10 110 2
25 6 77 9 115 2 39 7 95 10 125 3 30 7 82 10 115 2 33 7 89 10 125 3 36 8 90
10 120 3 30 8 82 11 115 2 33 7 89 10 125 3 36 7 90 10 120 2 30 6 78 8 105 4
54 15 196 21 260 2 22 6 72 10 110 3 39 7 90 10 115 3 25 7 77 10 115 3 39 8
97 10 130 3 33 7 83 10 110 3 28 7 78 8 112 2 34 5 65 9 68 3 3 3 16 1 29 -4
17 -11 23 -34 23 -16 0 -30 -1 -31 -3z"/>
<path d="M8734 6927 c3 -56 8 -133 11 -172 5 -72 13 -183 20 -290 2 -33 6 -94
9 -135 3 -41 8 -113 11 -160 3 -47 8 -112 11 -145 5 -66 9 -120 18 -270 4 -55
9 -120 11 -145 2 -25 6 -85 10 -135 3 -49 8 -110 10 -135 2 -25 7 -90 10 -145
3 -55 8 -120 10 -145 2 -25 7 -90 10 -145 4 -55 8 -122 10 -150 8 -100 15
-202 19 -272 5 -81 9 -92 34 -91 9 0 49 -3 87 -7 39 -3 88 -8 110 -10 22 -2
40 -4 40 -5 0 -1 18 -3 40 -5 22 -1 69 -6 105 -10 36 -4 76 -9 90 -10 14 -2
57 -6 95 -10 39 -3 81 -8 95 -10 14 -2 48 -7 75 -10 28 -3 73 -8 100 -12 206
-26 205 -26 206 -6 1 10 3 36 6 58 2 22 5 46 5 53 1 6 6 12 12 12 6 0 6 4 -1
11 -7 7 -8 22 -3 42 5 18 11 59 15 92 3 33 11 90 16 127 6 37 8 72 4 78 -3 5
-2 10 3 10 5 0 9 6 9 13 0 21 14 150 19 181 3 16 7 50 9 75 2 25 5 46 5 46 2
0 4 17 14 100 4 33 9 71 11 85 2 14 6 52 10 85 3 33 8 67 10 75 2 8 6 42 10
75 3 33 8 74 11 91 3 17 6 46 9 65 9 83 16 137 21 169 3 19 7 56 10 82 2 27 6
60 9 75 3 16 7 46 9 68 5 48 34 280 40 315 3 14 8 52 11 85 7 67 15 127 20
165 5 36 14 108 20 158 2 23 7 47 10 52 8 12 -4 17 -55 24 -25 4 -76 11 -115
16 -38 6 -96 12 -128 15 -32 2 -61 6 -65 8 -4 3 -45 8 -92 11 -47 4 -94 9
-105 11 -11 2 -51 7 -88 10 -37 4 -77 8 -87 10 -10 2 -50 6 -87 10 -150 14
-170 16 -208 20 -22 2 -58 6 -80 9 -22 3 -78 8 -125 11 -47 4 -96 8 -110 10
-14 2 -59 7 -100 10 -41 3 -88 8 -103 10 l-28 3 5 -101z"/>
<path d="M5770 4303 c-9 -23 -113 -295 -182 -478 -11 -27 -21 -54 -22 -60 -2
-5 -9 -23 -16 -40 -6 -16 -16 -41 -20 -55 -5 -14 -29 -79 -55 -145 -25 -66
-62 -163 -81 -215 -53 -140 -128 -288 -175 -343 -35 -41 -130 -106 -164 -114
-5 -1 -20 -4 -32 -7 -13 -3 -33 -8 -45 -11 -38 -9 -234 -4 -245 5 -2 2 -7 4
-13 5 -5 1 -13 4 -17 5 -5 1 -11 2 -16 1 -19 -3 -108 52 -149 92 -83 83 -141
187 -243 442 -5 11 -9 22 -10 25 -1 3 -7 19 -14 35 -6 17 -46 116 -88 220 -41
105 -81 204 -89 222 -8 17 -30 73 -50 125 -19 51 -42 109 -51 128 -9 19 -23
55 -32 80 -32 88 -30 86 -123 84 -46 -1 -128 -5 -183 -8 -55 -3 -152 -8 -215
-11 -63 -4 -149 -8 -190 -11 -41 -2 -124 -7 -185 -10 -149 -7 -230 -12 -230
-14 0 -1 -20 -3 -45 -5 -160 -9 -275 -17 -276 -18 -2 -2 -13 -116 -20 -207 -2
-30 -7 -82 -9 -115 -30 -346 -7 -421 173 -562 22 -18 45 -33 50 -33 4 0 17 -8
28 -17 16 -15 168 -95 184 -98 49 -6 184 -90 220 -135 37 -46 42 -64 46 -151
7 -172 -100 -274 -294 -284 -35 -2 -66 -6 -69 -9 -3 -2 -15 -1 -27 4 -13 4
-29 4 -39 -1 -11 -7 -17 -6 -17 0 0 7 -8 7 -24 1 -13 -5 -26 -6 -29 -4 -8 9
-70 10 -98 3 -15 -4 -32 -3 -40 1 -7 5 -21 4 -31 -1 -12 -6 -18 -6 -18 0 0 7
-8 7 -24 1 -13 -5 -26 -7 -29 -4 -7 7 -77 11 -77 5 0 -4 -17 -5 -37 -3 -41 3
-173 4 -189 1 -5 -1 -13 0 -19 1 -23 4 -136 1 -144 -5 -5 -3 -12 -1 -15 4 -3
5 -21 6 -40 1 -19 -4 -37 -6 -40 -3 -8 8 -70 9 -98 2 -15 -4 -30 -4 -33 1 -3
5 -16 5 -30 0 -16 -6 -27 -6 -31 1 -3 6 -10 6 -17 1 -7 -5 -21 -6 -32 -2 -11
4 -31 4 -45 0 -14 -4 -33 -4 -44 0 -10 3 -37 4 -60 2 -45 -5 -43 -5 -136 2
-87 6 -114 12 -169 40 -115 59 -160 189 -114 331 27 85 135 167 303 230 78 29
180 79 180 87 0 4 6 8 13 8 36 0 198 182 190 212 -2 4 1 8 5 8 4 0 8 10 9 22
1 11 6 24 10 27 4 3 9 11 10 17 11 59 23 153 28 219 4 44 8 98 11 120 2 22 6
74 10 115 3 41 6 77 6 80 3 31 4 30 -142 15 -36 -4 -83 -8 -105 -10 -80 -6
-181 -17 -210 -21 -16 -3 -50 -7 -75 -9 -63 -5 -150 -15 -180 -20 -21 -3 -125
-16 -250 -30 -186 -20 -182 -19 -175 -63 4 -20 8 -55 11 -77 3 -40 11 -100 19
-146 2 -13 6 -49 10 -79 4 -30 8 -66 10 -80 5 -43 15 -123 21 -165 7 -59 14
-116 18 -150 2 -16 7 -55 11 -85 4 -30 8 -66 10 -80 2 -14 6 -50 10 -80 4 -30
9 -70 11 -89 2 -19 5 -48 8 -65 4 -30 13 -99 21 -161 5 -38 17 -125 20 -145 5
-29 19 -175 18 -192 0 -10 3 -18 7 -18 4 0 6 -16 5 -35 -1 -19 1 -35 4 -35 3
0 7 -17 8 -38 2 -49 11 -128 19 -172 3 -19 8 -51 9 -70 5 -46 13 -115 21 -163
3 -20 7 -61 9 -90 2 -28 5 -52 5 -52 3 0 9 -41 16 -100 3 -33 8 -69 10 -80 2
-10 5 -34 6 -52 1 -18 7 -34 13 -36 5 -3 37 -1 70 4 33 4 83 11 110 14 28 3
61 8 75 10 14 2 54 7 90 10 36 4 76 8 90 10 42 6 122 15 180 21 55 5 128 12
185 19 17 1 65 6 108 10 44 3 87 8 97 10 10 2 56 7 102 10 45 4 97 9 113 10
17 1 66 6 110 9 44 4 100 9 125 11 25 3 77 7 115 10 39 3 102 8 140 11 39 3
104 7 145 10 41 2 104 6 140 9 36 3 101 8 145 10 165 9 240 14 240 15 0 1 43
3 95 5 115 5 306 13 415 19 71 4 268 10 695 22 189 5 1275 5 1445 -1 651 -19
846 -27 1245 -50 47 -3 123 -7 170 -10 47 -2 85 -4 85 -5 0 -2 57 -6 195 -14
58 -4 130 -9 160 -12 70 -6 171 -14 235 -18 28 -2 78 -7 113 -10 34 -3 88 -8
120 -11 31 -3 82 -8 112 -11 30 -2 75 -7 100 -9 126 -12 178 -17 205 -20 17
-2 55 -6 85 -9 90 -9 213 -23 280 -31 19 -2 62 -7 95 -11 33 -3 71 -7 85 -9
102 -12 139 -17 165 -21 96 -18 102 -14 106 68 1 21 5 38 8 38 3 0 6 14 5 31
0 16 3 54 7 82 5 29 11 75 14 102 3 28 7 64 10 80 2 17 7 55 10 85 3 30 10 82
15 115 5 33 12 85 15 115 8 77 13 115 15 115 1 0 3 14 4 30 10 93 19 162 22
180 3 11 7 47 10 80 3 33 9 85 14 115 5 30 11 82 15 115 3 33 8 71 11 85 2 14
6 41 8 60 6 51 18 151 22 183 7 49 11 81 18 137 4 30 9 71 11 90 3 19 7 58 10
85 3 28 8 61 10 75 2 14 7 50 10 80 3 30 8 66 10 80 2 14 6 45 9 70 3 25 7 61
10 80 3 19 8 58 11 85 3 28 8 64 11 81 5 30 5 30 -42 33 -26 1 -50 4 -53 6 -3
1 -35 6 -71 10 -81 10 -105 13 -105 15 0 0 -22 3 -50 5 -27 2 -75 7 -105 10
-30 4 -68 8 -85 10 -45 4 -146 16 -180 21 -16 2 -52 6 -80 8 -94 9 -180 17
-214 21 l-33 4 6 -92 c4 -51 9 -117 12 -147 3 -30 7 -89 10 -130 15 -272 16
-278 40 -356 31 -99 89 -139 314 -214 136 -45 250 -101 250 -122 0 -4 6 -13
13 -20 34 -36 55 -113 51 -187 -2 -51 -55 -181 -72 -181 -4 0 -20 -11 -35 -25
-15 -14 -27 -23 -27 -19 0 3 -10 0 -22 -8 -13 -8 -36 -18 -52 -22 -34 -8 -143
-19 -171 -17 -11 1 -31 3 -45 4 -14 1 -37 -1 -51 -4 -15 -4 -32 -3 -40 1 -7 5
-21 4 -31 -1 -11 -6 -18 -6 -18 0 0 5 -14 6 -34 1 -19 -4 -37 -5 -41 -2 -5 5
-97 6 -120 2 -6 -1 -14 -1 -20 0 -12 2 -128 2 -141 -1 -5 -1 -13 0 -19 1 -19
4 -105 1 -113 -4 -4 -2 -14 -1 -22 4 -8 5 -22 5 -32 -1 -12 -6 -18 -6 -18 0 0
7 -8 7 -24 1 -13 -5 -26 -6 -29 -4 -8 9 -70 10 -98 3 -15 -4 -32 -3 -40 1 -7
5 -21 4 -31 -1 -12 -6 -18 -6 -18 0 0 7 -8 7 -24 1 -13 -5 -26 -7 -29 -4 -7 7
-77 11 -77 5 0 -4 -17 -5 -37 -3 -41 3 -173 4 -189 1 -5 -1 -13 0 -19 1 -12 2
-128 2 -141 -1 -5 -1 -13 0 -19 1 -19 4 -105 1 -113 -4 -4 -2 -14 -1 -22 4 -8
5 -22 5 -32 -1 -12 -6 -18 -6 -18 0 0 7 -8 7 -24 1 -13 -5 -26 -6 -29 -4 -8 9
-70 10 -98 3 -15 -4 -32 -3 -40 1 -7 5 -21 4 -31 -1 -12 -6 -18 -6 -18 0 0 7
-8 7 -24 1 -13 -5 -26 -7 -29 -4 -7 7 -77 11 -77 5 0 -4 -17 -5 -37 -3 -57 5
-152 4 -161 -2 -4 -2 -14 -1 -22 4 -8 5 -22 5 -32 -1 -12 -6 -18 -6 -18 0 0 6
-11 6 -29 1 -16 -4 -32 -6 -35 -3 -3 3 -32 7 -63 9 -32 1 -58 3 -58 4 0 1 -10
3 -23 6 -86 16 -171 90 -195 170 -29 102 1 240 66 297 36 32 93 66 124 73 15
4 33 9 38 13 6 3 15 6 20 7 6 1 55 16 109 33 205 66 276 116 304 214 7 28 6
225 -3 347 -4 52 -8 112 -8 132 -1 21 -4 38 -7 38 -3 0 -5 26 -6 58 -1 68 -14
265 -18 269 -2 2 -50 5 -107 8 -57 3 -151 7 -209 10 -149 7 -369 13 -717 21
l-303 6 -10 -29z"/>
<path d="M2494 1380 c-5 -5 -17 -6 -129 -14 -38 -3 -70 -5 -70 -6 0 -1 -25 -3
-55 -6 -30 -2 -75 -6 -100 -8 -25 -3 -53 -5 -63 -5 -17 -1 -18 -7 -12 -63 12
-117 15 -140 21 -149 3 -5 0 -9 -6 -9 -6 0 -8 -5 -5 -10 8 -13 12 -39 20 -125
3 -38 8 -97 11 -130 3 -33 7 -73 8 -90 0 -16 3 -34 6 -40 3 -5 5 -27 5 -48
l-1 -37 61 6 c33 3 83 8 110 10 28 2 66 6 85 8 19 2 76 7 125 11 50 3 99 8
110 10 11 2 23 4 27 4 4 1 5 29 2 64 -3 34 -6 90 -7 124 -1 35 -4 63 -7 63 -3
0 -6 19 -6 43 -3 83 -23 341 -30 377 -1 8 -3 17 -3 20 -1 6 -91 7 -97 0z"/>
<path d="M8074 1382 c-5 -4 -10 -11 -10 -17 -3 -20 -16 -182 -20 -245 -2 -36
-6 -85 -9 -110 -3 -25 -7 -82 -10 -125 -3 -44 -8 -106 -10 -137 -2 -32 -1 -59
3 -59 32 -6 59 -9 142 -15 102 -7 145 -11 145 -14 0 -2 114 -10 180 -13 44 -2
50 1 51 18 1 11 5 56 9 100 5 44 9 101 9 127 1 27 3 48 6 48 3 0 6 19 7 43 0
23 3 69 7 102 4 33 9 83 12 110 3 28 7 69 10 92 5 49 -1 55 -65 59 -25 1 -73
5 -106 9 -33 3 -85 7 -115 10 -30 2 -84 7 -120 10 -36 2 -74 7 -86 9 -11 2
-25 1 -30 -2z"/>
</g>
</svg>
