<svg xmlns="http://www.w3.org/2000/svg" viewBox="0 0 600.11 598"><defs><style>.cls-1{fill:#f8f8f8;fill-rule:evenodd;stroke-width:0px;}</style></defs><path class="cls-1" d="M164.06,189.19c-4.3,0-7.79-3.49-7.79-7.79s3.49-7.79,7.79-7.79h48.02c4.3,0,7.79,3.49,7.79,7.79s-3.49,7.79-7.79,7.79h-48.02ZM75.65,87.82c21.82,0,32.82,26.5,17.37,41.95-2.66,2.66-5.93,4.72-9.58,5.94v59.15h11.32l8.95-21.56h0c.61-1.47,1.67-2.76,3.13-3.65,33.11-20.2,38.77-66.15,11.22-93.7-23.43-23.43-61.42-23.43-84.85,0-18.94,18.94-23.1,48.32-9.93,71.77,5.02,8.93,12.25,16.45,20.94,21.8,1.45.82,2.65,2.12,3.34,3.78l8.95,21.56h11.32v-59.15c-17.19-5.74-22.55-27.72-9.58-40.69,4.45-4.45,10.59-7.2,17.38-7.2h0ZM82.01,106.04c3.51,3.51,3.51,9.2,0,12.71-5.64,5.64-15.34,1.63-15.34-6.36,0-7.99,9.7-12,15.34-6.36h0ZM84.09,27.36c0,4.3-3.49,7.79-7.79,7.79s-7.79-3.49-7.79-7.79V7.79c0-4.3,3.49-7.79,7.79-7.79s7.79,3.49,7.79,7.79v19.57h0ZM131.31,41.34c-2.15,3.71-6.91,4.98-10.62,2.83-3.71-2.15-4.98-6.91-2.83-10.62l9.79-16.95c2.15-3.71,6.91-4.98,10.62-2.83,3.71,2.15,4.98,6.91,2.83,10.62l-9.79,16.95h0ZM30.71,33.55c2.15,3.71.88,8.47-2.83,10.62s-8.47.88-10.62-2.83L7.47,24.39c-2.15-3.71-.88-8.47,2.83-10.62,3.71-2.15,8.47-.88,10.62,2.83l9.79,16.95h0ZM38.68,218.67h73.94c0-2.87.47-5.57-1.1-7.14-.68-.68-1.61-1.1-2.63-1.1H42.41c-2.04,0-3.73,1.69-3.73,3.73v4.51h0ZM128.21,226.44v12.33c0,10.64-8.68,19.31-19.31,19.31h-3.5c0,6.11.38,10.86-4.65,15.9l.02.02c-5.29,5.29-10.62,4.63-17.32,4.63v251.25h276.61c4.3,0,7.79,3.49,7.79,7.79v2.62c0,35.55,42.65,55.01,65.11,32.56,5.9-5.9,9.57-14.04,9.57-22.98v-73.91c-38.81-4.46-71.81-27-90.5-59.35h-.01c-33.21-57.51-13.52-130.96,43.99-164.19h0c14.17-8.19,30-13.5,46.53-15.39v-121.73c0-16.54,7.04-31.55,18.35-42.13H136.23c17.81,23.83,19.99,56.09,5.35,82.16-5.93,10.56-14.34,19.55-24.43,26.2l-5.61,13.51c9.45,1.3,16.67,9.45,16.67,19.13v12.28h0ZM112.62,234.26v4.51c0,2.04-1.69,3.73-3.73,3.73H42.41c-1.02,0-1.95-.42-2.63-1.1-1.57-1.57-1.1-4.27-1.1-7.14h73.94ZM89.81,258.09l-.03,4.89-28.08.06c-.44,0-.2-3.83-.2-4.96h28.31ZM45.91,258.09c0,6.09-.38,10.86,4.63,15.88,5.31,5.33,10.62,4.66,17.32,4.66v251.25H16.54c-4.3,0-7.79,3.49-7.79,7.79v2.62c0,31.75,25.96,57.71,57.71,57.71h343.51c26.49,0,48.14-21.65,48.14-48.14v-73.14c10.19-.17,20.2-1.64,29.83-4.29l14.01,24.26-2.5,1.45c-3.72,2.14-5,6.88-2.86,10.59l41.57,72c5.05,9.41,17.07,12.83,26.42,7.43h0s25.55-14.77,25.55-14.77c9.41-5.06,12.83-17.04,7.43-26.39l-41.8-72.4c-2.14-3.72-6.88-5-10.59-2.86l-3.27,1.89-12.57-21.78c20.29-15.55,35.79-37.65,42.92-64.25,20.18-75.33-35.85-149.98-114.12-151.33v-52.63h95.67c4.3,0,7.79-3.49,7.79-7.79v-60.56c0-31.75-25.96-57.71-57.71-57.71H120.57c-12.56-9.3-28.1-14.79-44.92-14.79-57.92,0-94.03,62.53-65.93,112.54,5.93,10.56,14.34,19.55,24.43,26.2l5.61,13.51c-9.45,1.3-16.67,9.45-16.67,19.13v24.61c0,10.64,8.68,19.31,19.31,19.31h3.5ZM479.68,268.5c48.6,13.02,77.43,63,64.42,111.56-13.02,48.6-63,77.43-111.56,64.42-48.6-13.02-77.43-63-64.42-111.56,13.02-48.6,63-77.43,111.56-64.42h0ZM521.53,318.73c20.85,36.12,8.46,82.33-27.66,103.18-36.11,20.85-82.32,8.47-103.18-27.66-20.85-36.12-8.46-82.33,27.66-103.18,36.12-20.85,82.33-8.46,103.18,27.66h0ZM515.41,488.91l-12.52-21.69,13.49-6.73,12.06,20.89-13.04,7.53h0ZM546.18,489.07l37.91,65.67c1.11,1.93.32,3.95-1.74,5.22l-24.92,14.39c-2.8,1.44-4.25,1.09-5.97-1.59l-37.56-65.05,32.27-18.63h0ZM546.75,304.17c28.9,49.94,11.76,114.05-38.32,142.96-23.77,13.72-52.65,17.61-79.41,10.44-28.32-7.59-49.79-25.42-63.56-48.76h.01c-13.39-23.19-17.92-51.49-10.44-79.42,7.59-28.32,25.42-49.79,48.76-63.56h0c24.06-13.88,52.47-17.65,79.41-10.43,27.92,7.48,50.16,25.57,63.55,48.76h0ZM145.23,323.57c-3.4-2.62-4.02-7.5-1.4-10.9s7.5-4.02,10.9-1.4l9.81,7.55,23.43-30.42c2.62-3.4,7.5-4.02,10.9-1.4s4.02,7.5,1.4,10.9l-28.17,36.56c-2.62,3.4-7.5,4.02-10.9,1.4l-15.97-12.29h0ZM182.78,335.11c0-4.3,3.49-7.79,7.79-7.79s7.79,3.49,7.79,7.79v19.41c0,4.3-3.49,7.79-7.79,7.79h-60.82c-4.3,0-7.79-3.49-7.79-7.79v-60.82c0-4.3,3.49-7.79,7.79-7.79h32.15c4.3,0,7.79,3.49,7.79,7.79s-3.49,7.79-7.79,7.79h-24.35v45.24h45.24v-11.62h0ZM396.32,202.62c-7,5.08-15.05,8.07-23.28,8.99l1.46-30.81,21.82,21.82h0ZM359.79,163.05l-2.26,47.83c-22.72-4.73-39.01-24.81-39.01-48.03,0-40.13,45.64-63.08,77.81-39.77l-34.26,34.26c-1.57,1.57-2.33,3.65-2.28,5.71h0ZM378.59,162.85l28.75-28.75c12.39,17.1,12.39,40.39,0,57.5l-28.75-28.75h0ZM413.29,117.14c25.25,25.25,25.25,66.18,0,91.43-25.25,25.25-66.18,25.25-91.43,0-25.25-25.25-25.25-66.18,0-91.43,25.25-25.25,66.18-25.25,91.43,0h0ZM149.33,426.92c-3.38,2.64-8.26,2.04-10.9-1.34-2.64-3.38-2.04-8.26,1.34-10.9l50.81-39.66c3.13-2.44,7.54-2.11,10.27.63l.02-.02,17.29,17.29,59.79-38.15c3.61-2.3,8.41-1.24,10.72,2.37,2.3,3.61,1.24,8.41-2.37,10.72l-64.47,41.14c-3.06,2.37-7.47,2.15-10.28-.65l-16.84-16.84-45.38,35.42h0ZM257.4,485.88v-74.53c0-4.3,3.49-7.79,7.79-7.79h36.35c4.3,0,7.79,3.49,7.79,7.79v74.53h5.28c4.3,0,7.79,3.49,7.79,7.79s-3.49,7.79-7.79,7.79H108.35c-4.3,0-7.79-3.49-7.79-7.79s3.49-7.79,7.79-7.79h12.72v-23.67c0-4.3,3.49-7.79,7.79-7.79h36.35c4.3,0,7.79,3.49,7.79,7.79v23.67h16.23v-46.64c0-4.3,3.49-7.79,7.79-7.79h36.35c4.3,0,7.79,3.49,7.79,7.79v46.64h16.23ZM293.75,485.88h-20.76v-66.74h20.76v66.74h0ZM225.59,485.88h-20.76v-38.85h20.76v38.85h0ZM136.66,485.88v-15.88h20.76v15.88h-20.76ZM226.98,321.4c-4.3,0-7.79-3.49-7.79-7.79s3.49-7.79,7.79-7.79h54.23c4.3,0,7.79,3.49,7.79,7.79s-3.49,7.79-7.79,7.79h-54.23ZM164.06,226.06c-4.3,0-7.79-3.49-7.79-7.79s3.49-7.79,7.79-7.79h27.88c4.3,0,7.79,3.49,7.79,7.79s-3.49,7.79-7.79,7.79h-27.88ZM225.41,226.06c-4.3,0-7.79-3.49-7.79-7.79s3.49-7.79,7.79-7.79h48.34c4.3,0,7.79,3.49,7.79,7.79s-3.49,7.79-7.79,7.79h-48.34ZM164.06,256.53c-4.3,0-7.79-3.49-7.79-7.79s3.49-7.79,7.79-7.79h118.35c4.3,0,7.79,3.49,7.79,7.79s-3.49,7.79-7.79,7.79h-118.35ZM319.6,256.53c-4.3,0-7.79-3.49-7.79-7.79s3.49-7.79,7.79-7.79h35.33c4.3,0,7.79,3.49,7.79,7.79s-3.49,7.79-7.79,7.79h-35.33ZM66.46,582.42c-21.3,0-39.22-16.1-41.81-36.95h327.84c1.3,14.48,8.01,27.49,18.12,36.95H66.46ZM503.86,73.17c23.15,0,42.13,18.97,42.13,42.13v52.76h-87.88v-52.76c0-23.16,18.97-42.13,42.13-42.13h3.62ZM164.06,158.73c-4.3,0-7.79-3.49-7.79-7.79s3.49-7.79,7.79-7.79h56.08c4.3,0,7.79,3.49,7.79,7.79s-3.49,7.79-7.79,7.79h-56.08ZM248.64,189.19c-4.3,0-7.79-3.49-7.79-7.79s3.49-7.79,7.79-7.79h24.79c4.3,0,7.79,3.49,7.79,7.79s-3.49,7.79-7.79,7.79h-24.79Z"/></svg>