<svg xmlns="http://www.w3.org/2000/svg" viewBox="0 0 593.83 600.25" fill="#f8f8f8"><path d="M591.08,516.85l-4.58-14.66c-.92-1.83-.92-3.67-1.83-4.58-3.67-8.25-8.25-15.58-14.66-21.99-4.58-4.58-10.08-8.25-15.58-11-7.33-3.67-16.5-6.41-24.74-7.33-4.58,0-10.08-.92-14.66,0-6.41,0-12.83.92-19.24.92-2.75-5.5-5.5-19.24.92-36.66,23.83,4.58,42.15-5.5,43.07-6.41l2.75-.92,6.41-21.99v-.92c.92-4.58,14.66-109.97-54.07-142.96s-113.63,17.41-113.63,17.41c-53.15,54.07-23.83,142.04-22.91,145.71l.92,1.83,1.83.92c9.16,6.41,21.99,8.25,32.99,8.25h9.16c5.5,16.5,1.83,29.33,0,35.74-6.41,0-11.91-.92-18.33-.92-25.66-1.83-47.65,7.33-61.4,23.83-22.91-12.83-44.9-29.33-57.73-56.82,10.08-11,18.33-24.74,23.83-40.32,11-1.83,18.33-16.5,18.33-37.57,0-13.75-3.67-28.41-11.91-34.82.92-10.08,2.75-20.16,2.75-31.16,2.75-49.49-11-55.9-35.74-64.15l-5.5-1.83c-19.24-6.41-40.32-7.33-53.15-8.25-13.75,0-33.91,1.83-53.15,8.25l-5.5,1.83c-24.74,7.33-38.49,14.66-35.74,64.15.92,10.08,1.83,21.08,2.75,31.16-8.25,6.41-11.91,21.08-11.91,34.82,0,20.16,7.33,35.74,18.33,37.57,5.5,15.58,13.75,29.33,23.83,40.32-16.5,36.66-49.49,53.15-79.73,67.81-16.5,8.25-31.16,15.58-40.32,25.66C0,542.51,0,572.76,0,592.92v7.33h407.8v-7.33c0-12.83,0-29.33-5.5-45.82h183.28c2.75,0,4.58-.92,6.41-2.75s1.83-4.58,1.83-6.41l-2.75-21.08ZM371.15,405.05c-3.67-13.75-21.99-86.14,20.16-130.13,0,0,38.49-42.15,97.14-14.66,56.82,27.49,47.65,120.97,46.74,128.3l-4.58,16.5c-5.5,2.75-20.16,7.33-38.49,1.83,20.16-21.99,23.83-49.49,23.83-51.32l.92-4.58-3.67-2.75c-31.16-19.24-37.57-66.9-37.57-67.81l-2.75-17.41-10.08,14.66c-17.41,25.66-37.57,31.16-50.4,31.16-4.58,0-8.25-.92-9.16-.92-4.58-1.83-8.25-3.67-11.91-3.67-11,0-14.66,9.16-15.58,13.75-1.83,25.66,3.67,35.74,8.25,39.41,6.41,23.83,15.58,39.41,24.74,49.49-11,3.67-27.49,3.67-37.57-1.83ZM417.88,421.55h1.83l-.92-2.75c11,8.25,22.91,11,31.16,11,5.5,0,10.08-.92,10.08-.92,8.25-2.75,14.66-6.41,21.08-11v.92c.92,0,1.83.92,2.75.92-8.25,25.66-.92,43.07,1.83,49.49-6.41,11-10.08,16.5-15.58,22.91l-3.67,4.58c-3.67,4.58-10.08,7.33-16.5,7.33s-11.91-2.75-16.5-7.33c-6.41-7.33-11.91-16.5-17.41-27.49,1.83-7.33,8.25-24.74,1.83-47.65ZM456.37,414.22s-2.75.92-6.41.92c-13.75,0-38.49-8.25-53.15-62.32v-2.75l-2.75-.92s-5.5-4.58-4.58-27.49c0-1.83,1.83-1.83,1.83-1.83.92,0,2.75,0,6.41,1.83l.92.92c.92,0,5.5,1.83,13.75,1.83,11.91,0,32.99-3.67,52.24-25.66,4.58,16.5,14.66,43.99,36.66,60.48-1.83,10.08-11.91,43.99-44.9,54.98ZM150.29,230.94l5.5-1.83c14.66-4.58,31.16-7.33,49.49-7.33s34.82,2.75,49.49,7.33l5.5,1.83c19.24,5.5,27.49,8.25,26.58,43.99-1.83-1.83-2.75-3.67-4.58-4.58-10.08-8.25-22.91-11-35.74-9.16-11.91,1.83-24.74,6.41-38.49,12.83,0,0-27.49,11-57.73.92-9.16-2.75-19.24-.92-26.58,4.58-.92-40.32,7.33-42.15,26.58-48.57ZM131.96,374.81l-2.75-7.33-7.33,2.75c-1.83-.92-7.33-9.16-7.33-23.83,0-15.58,5.5-22.91,7.33-23.83l4.58-2.75.92-5.5v-3.67c0-3.67-.92-6.41-.92-10.08,0-1.83.92-3.67.92-5.5,2.75-7.33,11-11,18.33-8.25,35.74,11.91,65.98-.92,67.81-.92,12.83-5.5,23.83-10.08,34.82-11.91,8.25-1.83,17.41.92,24.74,6.41,6.41,5.5,10.08,12.83,11,21.08h0c0,3.67-.92,6.41-.92,10.08v3.67l.92,7.33,4.58.92c1.83,0,7.33,8.25,7.33,23.83,0,14.66-4.58,22.91-7.33,23.83l-7.33-2.75-1.83,7.33c-11.91,39.41-41.24,64.15-73.31,64.15-32.99-.92-62.32-26.58-74.23-65.07ZM155.79,434.38c14.66,11.91,32.07,18.33,50.4,18.33s35.74-6.41,50.4-18.33c8.25,15.58,18.33,28.41,30.24,38.49-13.75,22.91-29.33,43.07-47.65,60.48l4.58,4.58-4.58-3.67c-18.33,18.33-47.65,18.33-65.98,0-17.41-17.41-33.91-38.49-47.65-61.4,11-10.08,21.99-22.91,30.24-38.49ZM15.58,586.5c0-18.33,1.83-40.32,19.24-58.65,7.33-8.25,21.08-14.66,36.66-21.99,13.75-6.41,28.41-13.75,42.15-23.83,14.66,23.83,31.16,44.9,49.49,62.32,11.91,11.91,27.49,17.41,43.07,17.41s31.16-5.5,43.07-17.41l.92-.92c18.33-18.33,33.91-38.49,48.57-62.32,13.75,10.08,29.33,17.41,42.15,23.83,15.58,7.33,29.33,14.66,36.66,21.99,17.41,18.33,19.24,40.32,19.24,58.65H15.58v.92ZM398.64,533.35c-2.75-5.5-6.41-10.08-11-15.58-9.16-10.08-23.83-17.41-40.32-25.66-2.75-1.83-6.41-2.75-9.16-4.58,11-11.91,27.49-18.33,47.65-16.5,5.5,0,11,.92,17.41.92,6.41,11.91,12.83,21.99,20.16,31.16,6.41,8.25,16.5,12.83,26.58,12.83,11,0,20.16-4.58,27.49-12.83l3.67-3.67c6.41-6.41,11-12.83,18.33-26.58,6.41,0,11.91-.92,18.33-.92h12.83c7.33.92,14.66,2.75,20.16,5.5,4.58,1.83,8.25,5.5,11.91,8.25,4.58,4.58,8.25,10.08,11,16.5.92.92.92,2.75.92,3.67l4.58,13.75,2.75,13.75h-183.28Z"/><path d="M237.35,134.71h5.5v46.74l52.24-46.74h6.41v11c0,14.66,11.91,25.66,25.66,25.66h112.72l44.9,40.32v-40.32c14.66,0,25.66-11.91,25.66-25.66V56.82c0-14.66-11.91-25.66-25.66-25.66h-39.41v-5.5c0-14.66-11.91-25.66-25.66-25.66h-182.37c-13.75,0-25.66,11-25.66,25.66v83.39c0,14.66,11.91,25.66,25.66,25.66ZM445.38,109.05V44.9h39.41c6.41,0,11.91,5.5,11.91,11.91v89.81c0,6.41-5.5,11.91-11.91,11.91h-13.75v22.91l-25.66-22.91h-118.22c-6.41,0-11.91-5.5-11.91-11.91v-11h104.47c14.66-.92,25.66-11.91,25.66-26.58ZM225.44,25.66c0-6.41,5.5-11.91,11.91-11.91h182.37c6.41,0,11.91,5.5,11.91,11.91v83.39c0,6.41-5.5,11.91-11.91,11.91h-130.13l-32.99,29.33v-29.33h-19.24c-6.41,0-11.91-5.5-11.91-11.91V25.66Z"/><rect x="258.43" y="41.24" width="140.21" height="13.75"/><rect x="282.25" y="78.81" width="93.47" height="13.75"/></svg>