<svg xmlns="http://www.w3.org/2000/svg" viewBox="0 0 599.83 564.93" fill="#f8f8f8"><path d="M299.92,357.06c41.14,0,74.6-33.46,74.6-74.6s-33.46-74.6-74.6-74.6-74.6,33.46-74.6,74.6,33.46,74.6,74.6,74.6ZM299.92,224.86c31.76,0,57.6,25.84,57.6,57.6s-25.84,57.6-57.6,57.6-57.6-25.84-57.6-57.6,25.83-57.6,57.6-57.6ZM188.7,374.55l19.13,19.12c3.28,3.29,7.65,5.09,12.29,5.09s9.01-1.81,12.29-5.09c7.47-7.47,16.96-7.3,23.36-4.65,6.39,2.65,13.23,9.24,13.23,19.81,0,9.59,7.8,17.38,17.38,17.38h27.05c9.59,0,17.38-7.8,17.38-17.38,0-10.54,6.84-17.13,13.24-19.79,6.4-2.65,15.9-2.83,23.35,4.63,6.78,6.77,17.8,6.78,24.59,0l19.13-19.13c6.78-6.78,6.78-17.81,0-24.59-7.45-7.45-7.28-16.95-4.63-23.35s9.24-13.24,19.78-13.24c9.59,0,17.38-7.8,17.38-17.38v-27.05c0-9.59-7.8-17.38-17.38-17.38-10.54,0-17.13-6.84-19.78-13.24-2.65-6.4-2.83-15.9,4.63-23.35,3.29-3.29,5.09-7.65,5.09-12.29s-1.81-9.01-5.09-12.29l-19.13-19.13c-6.78-6.78-17.81-6.77-24.59,0-7.45,7.45-16.95,7.28-23.35,4.63-6.4-2.65-13.24-9.24-13.24-19.78,0-9.59-7.8-17.38-17.38-17.38h-27.05c-9.59,0-17.38,7.8-17.38,17.38,0,10.54-6.84,17.13-13.24,19.78-6.4,2.65-15.9,2.83-23.35-4.63-3.29-3.29-7.65-5.09-12.29-5.09s-9.01,1.81-12.29,5.09l-19.12,19.13c-3.29,3.28-5.09,7.65-5.09,12.29s1.81,9.01,5.09,12.29c7.45,7.45,7.28,16.95,4.63,23.35-2.65,6.4-9.24,13.24-19.79,13.24-9.59,0-17.38,7.8-17.38,17.38v27.05c0,9.59,7.8,17.38,17.38,17.38,10.54,0,17.13,6.84,19.79,13.24,2.65,6.4,2.83,15.9-4.63,23.35-6.78,6.79-6.78,17.82,0,24.6ZM173.54,296.37c-.21,0-.39-.17-.39-.39v-27.05c0-.21.17-.39.39-.39,15.83,0,29.43-9.1,35.49-23.73,6.07-14.64,2.88-30.69-8.31-41.88-.03-.03-.11-.11-.11-.27s.08-.24.11-.27l19.13-19.13s.11-.11.27-.11.24.08.27.11c11.19,11.19,27.23,14.37,41.88,8.31,14.64-6.07,23.73-19.66,23.73-35.49,0-.22.17-.39.39-.39h27.05c.21,0,.39.17.39.39,0,15.83,9.1,29.42,23.73,35.49,14.64,6.07,30.68,2.88,41.88-8.31.15-.15.39-.15.54,0l19.13,19.13s.11.11.11.27-.08.24-.11.27c-11.19,11.19-14.37,27.23-8.31,41.88,6.07,14.64,19.66,23.73,35.49,23.73.21,0,.39.17.39.39v27.05c0,.21-.17.39-.39.39-15.83,0-29.42,9.1-35.49,23.73-6.07,14.64-2.88,30.69,8.31,41.88.15.15.15.39,0,.54l-19.13,19.13c-.15.15-.4.15-.54,0-11.19-11.19-27.23-14.38-41.88-8.31-14.64,6.06-23.73,19.66-23.73,35.49,0,.21-.17.39-.39.39h-27.05c-.21,0-.39-.17-.39-.39,0-15.84-9.09-29.45-23.73-35.51-4.9-2.04-9.97-3.02-14.96-3.02-9.89,0-19.48,3.91-26.93,11.36-.03.03-.11.11-.27.11s-.24-.08-.27-.11l-19.13-19.13c-.15-.15-.15-.39,0-.54,11.19-11.19,14.37-27.23,8.31-41.88-6.05-14.64-19.65-23.74-35.48-23.74ZM427.89,50.54c23.63,13.06,45.06,29.6,63.7,49.14,1.6,1.68,3.83,2.63,6.15,2.63h31.36v26.1c0,3.52,2.17,6.68,5.47,7.94.99.38,2.02.56,3.04.56,2.37,0,4.69-.99,6.33-2.83l53.73-59.95c2.89-3.23,2.89-8.12,0-11.34l-53.73-59.95c-2.35-2.62-6.07-3.53-9.37-2.26-3.29,1.26-5.47,4.42-5.47,7.94v26.1h-97.1c-3.87,0-7.26,2.62-8.23,6.37-.97,3.74.73,7.67,4.12,9.55ZM537.59,51.6c4.69,0,8.5-3.8,8.5-8.5v-12.38l33.82,37.74-33.82,37.74v-12.38c0-4.69-3.8-8.5-8.5-8.5h-36.25c-12.2-12.46-25.48-23.73-39.71-33.71h75.96ZM543.92,430.84c-2.35-2.62-6.07-3.53-9.37-2.26-3.29,1.26-5.47,4.42-5.47,7.94v26.1h-229.17c-99.33,0-180.15-80.82-180.15-180.15,0-58.74,28.78-113.95,76.98-147.69,3.04-2.13,4.35-5.98,3.23-9.52-1.11-3.54-4.4-5.94-8.1-5.94h-74.64c-2.5,0-4.87,1.1-6.49,3-37.85,44.66-58.7,101.54-58.7,160.14,0,136.67,111.19,247.86,247.86,247.86h229.17v26.1c0,3.52,2.17,6.68,5.47,7.94.99.38,2.02.56,3.04.56,2.37,0,4.69-.99,6.33-2.83l53.73-59.95c2.89-3.23,2.89-8.12,0-11.34l-53.73-59.97ZM546.09,534.2v-12.38c0-4.69-3.8-8.5-8.5-8.5h-237.67c-127.29,0-230.86-103.56-230.86-230.86,0-53.28,18.5-105.02,52.17-146.15h46.4c-40.99,37.15-64.85,90.18-64.85,146.15,0,108.71,88.44,197.15,197.15,197.15h237.68c4.69,0,8.5-3.8,8.5-8.5v-12.38l33.82,37.74-33.84,37.75ZM55.91,134.09c2.35,2.62,6.07,3.53,9.37,2.26,3.29-1.26,5.47-4.42,5.47-7.94v-26.1h229.17c99.33,0,180.15,80.81,180.15,180.15,0,58.74-28.78,113.95-76.98,147.69-3.04,2.13-4.35,5.98-3.23,9.52,1.11,3.54,4.4,5.94,8.1,5.94h74.63c2.5,0,4.87-1.1,6.49-3,37.86-44.66,58.7-101.54,58.7-160.14,0-136.67-111.19-247.86-247.86-247.86H70.74V8.5c0-3.52-2.17-6.68-5.47-7.94-3.29-1.26-7.02-.35-9.37,2.26L2.18,62.78c-2.89,3.23-2.89,8.12,0,11.34l53.73,59.97ZM53.74,30.72v12.38c0,4.69,3.8,8.5,8.5,8.5h237.68c127.29,0,230.86,103.56,230.86,230.86,0,53.28-18.5,105.02-52.16,146.15h-46.4c40.99-37.15,64.85-90.18,64.85-146.15,0-108.71-88.44-197.15-197.15-197.15H62.24c-4.69,0-8.5,3.8-8.5,8.5v12.38l-33.82-37.75L53.74,30.72ZM171.94,514.38c-23.61-13.06-45.05-29.59-63.7-49.14-1.6-1.68-3.83-2.63-6.15-2.63h-31.36v-26.1c0-3.52-2.17-6.68-5.47-7.94-3.29-1.26-7.02-.35-9.37,2.26L2.17,490.79c-2.89,3.23-2.89,8.12,0,11.34l53.73,59.95c1.64,1.83,3.96,2.83,6.33,2.83,1.01,0,2.05-.18,3.04-.56,3.29-1.26,5.47-4.42,5.47-7.94v-26.09h97.09c3.87,0,7.26-2.62,8.23-6.37.98-3.76-.72-7.69-4.11-9.56ZM62.24,513.32c-4.69,0-8.5,3.8-8.5,8.5v12.38l-33.82-37.75,33.82-37.74v12.38c0,4.69,3.8,8.5,8.5,8.5h36.25c12.2,12.46,25.49,23.74,39.71,33.71H62.24Z"/></svg>