<svg xmlns="http://www.w3.org/2000/svg" viewBox="0 0 516.97 600.31" fill="#f8f8f8"><path d="M480.05,0H36.93C16.54,0,0,16.53,0,36.93v516.97c0,20.39,16.53,36.93,36.93,36.93h269.04v-13.03H36.93c-13.18,0-23.9-10.72-23.9-23.9V36.93c0-13.18,10.72-23.9,23.9-23.9h443.12c13.18,0,23.9,10.72,23.9,23.9v516.97c0,13.18-10.72,23.9-23.9,23.9h-16.46v13.03h16.46c20.39,0,36.93-16.53,36.93-36.93V36.93c0-20.39-16.54-36.93-36.93-36.93Z"/><path d="M96.11,100.39h334.65c3.6,0,6.51-2.91,6.51-6.51s-2.91-6.51-6.51-6.51H96.11c-3.6,0-6.51,2.91-6.51,6.51s2.91,6.51,6.51,6.51Z"/><path d="M96.11,177.57h334.65c3.6,0,6.51-2.91,6.51-6.51s-2.91-6.51-6.51-6.51H96.11c-3.6,0-6.51,2.91-6.51,6.51,0,3.6,2.91,6.51,6.51,6.51Z"/><path d="M437.27,248.22c0-3.6-2.91-6.51-6.51-6.51H96.11c-3.6,0-6.51,2.91-6.51,6.51s2.91,6.51,6.51,6.51h334.65c3.6,0,6.51-2.91,6.51-6.51Z"/><path d="M96.11,318.88c-3.6,0-6.51,2.91-6.51,6.51s2.91,6.51,6.51,6.51h158.15c3.6,0,6.51-2.91,6.51-6.51s-2.91-6.51-6.51-6.51H96.11Z"/><path d="M385.19,312.87c-51.11,0-92.53,41.43-92.53,92.53s41.43,92.53,92.53,92.53,92.53-41.43,92.53-92.53-41.43-92.53-92.53-92.53ZM385.19,484.91c-43.84,0-79.51-35.67-79.51-79.51s35.67-79.51,79.51-79.51,79.51,35.67,79.51,79.51c0,43.84-35.67,79.51-79.51,79.51Z"/><path d="M443.62,386.1c-.77-2.36-2.81-4.08-5.26-4.43l-32.71-4.76-14.63-29.64c-2.19-4.45-9.49-4.45-11.68,0l-14.63,29.64-32.71,4.76c-2.45.35-4.49,2.07-5.26,4.43-.76,2.35-.12,4.94,1.65,6.67l23.67,23.07-5.58,32.58c-.42,2.44.58,4.91,2.59,6.36,1.14.83,2.48,1.25,3.83,1.25,1.04,0,2.08-.25,3.04-.75l29.25-15.38,29.25,15.38c1,.52,2.34.82,3.16.75,3.32-.35,6.65-2.87,6.65-6.51,0-1.03-.24-1.98-.66-2.85l-5.3-30.83,23.68-23.07c1.77-1.73,2.41-4.32,1.64-6.67ZM406.76,408.9c-1.53,1.5-2.23,3.65-1.87,5.76l3.94,22.94-20.6-10.83c-1.91-1.01-4.16-1.01-6.07,0l-20.6,10.83,3.93-22.94c.36-2.11-.34-4.27-1.87-5.76l-16.67-16.25,23.04-3.35c2.12-.31,3.96-1.64,4.9-3.56l10.3-20.88,10.3,20.88c.95,1.92,2.78,3.26,4.9,3.56l23.03,3.35-16.68,16.25Z"/><path d="M439.08,497.87c-2.11-1.14-4.67-1.03-6.67.29-28.14,18.53-66.3,18.53-94.44,0-2-1.32-4.57-1.44-6.67-.29-2.11,1.13-3.43,3.34-3.43,5.73v90.18c0,2.49,1.41,4.75,3.65,5.84,2.23,1.11,4.89.83,6.86-.7l46.48-36.01,47.18,36.05c1.16.89,2.55,1.34,3.96,1.34.98,0,1.97-.22,2.89-.67,2.22-1.1,3.63-3.36,3.63-5.84v-90.2c-.01-2.39-1.33-4.6-3.43-5.73ZM429.47,580.61l-40.69-31.09c-1.17-.89-2.57-1.34-3.96-1.34s-2.81.46-3.99,1.37l-39.94,30.94v-65.63c27.41,13.76,61.17,13.76,88.58,0v65.74Z"/></svg>