<svg xmlns="http://www.w3.org/2000/svg" viewBox="0 0 600 421.4" fill="#f8f8f8"><path d="M501,108.59h-86.02c-3.28,0-6.25,1.34-8.41,3.5-2.16,2.16-3.5,5.14-3.5,8.41v217.36c0,3.28,1.34,6.26,3.5,8.42,2.16,2.16,5.14,3.5,8.41,3.5h15.77v-.09s.03-.16.03-.16l.07-.58.03-.25.06-.46.06-.41.04-.31.06-.41.06-.34.07-.42v-.04s.12-.64.12-.64v-.04s.13-.68.13-.68h0s.09-.47.09-.47l.05-.25.09-.44.07-.31.08-.35.1-.43.07-.32.08-.33.1-.44v-.03s.16-.6.16-.6v-.06s.19-.66.19-.66l.18-.63v-.03s.15-.5.15-.5l.06-.22.12-.41.12-.39.08-.25.14-.44.11-.33.09-.27.14-.43h0s.22-.65.22-.65v-.02s.23-.62.23-.62v-.02s.12-.31.12-.31l.16-.44.11-.27.14-.36.14-.34.15-.38.11-.28.23-.54.04-.11.16-.36.32-.73.09-.22.05-.1.07-.15.22-.47.17-.36.1-.21.2-.42.17-.35.12-.24.22-.44.09-.17.06-.12.3-.58v-.02s.33-.59.33-.59l.04-.08.09-.17.26-.46.09-.17.26-.46.13-.22.22-.38.18-.31.14-.24.23-.38.02-.03.33-.53.02-.04.36-.56.03-.05.33-.51.04-.07.18-.27.21-.31.21-.31.21-.31.18-.26.33-.46.07-.09.33-.46.1-.14.04-.05.39-.54.03-.03.45-.59.1-.13.32-.41.18-.22.3-.37.15-.19.34-.42.11-.14.35-.42.11-.14.05-.06.43-.51v-.02s.44-.48.44-.48l.09-.09.36-.4.05-.06.28-.3.24-.27.2-.22.33-.35.17-.18.31-.33.16-.17.08-.08.47-.47c11.64-11.64,27.72-18.84,45.49-18.84s33.85,7.2,45.49,18.84l.47.47.08.08.16.17.31.33.17.18.33.35.2.22.24.27.27.3.05.06.36.4.09.09.42.48v.02s.45.51.45.51l.06.06.11.14.35.42.11.14.34.42.15.19.3.37.18.22.32.41.1.13.45.59.03.03.4.54.04.05.1.14.33.46.07.09.33.46.18.26.21.31.21.31.21.31.18.27.04.07.33.51.04.05.36.56.02.04.33.53.02.03.23.38.14.24.19.31.22.38.13.22.26.46.1.17.25.46.09.17.04.08.32.59v.02s.31.58.31.58l.06.12.09.17.22.44.12.24.17.35.2.42.1.21.17.36.22.47.07.15.04.1.1.22.32.73.16.36.04.11.23.54.12.28.15.38.13.34.14.36.1.27.17.44.11.31v.02s.23.62.23.62v.02s.23.64.23.64h0s.14.44.14.44l.09.27.11.33.14.44.08.25.12.39.12.41.06.22.15.5v.03s.18.63.18.63l.18.66.02.06.15.6v.03s.11.44.11.44l.08.33.07.32.09.43.08.35.07.31.09.44.05.25.09.46h0s.13.68.13.68v.04s.12.64.12.64v.04s.07.42.07.42l.06.34.06.41.05.31.06.41.06.46.03.25.07.58.02.16v.09h14.9c3.28,0,6.25-1.34,8.41-3.5,2.16-2.16,3.5-5.14,3.5-8.42v-24.59h-22.17c-2.48,0-4.74-1.01-6.38-2.65h-.01c-1.64-1.64-2.65-3.9-2.65-6.39v-25.23c0-2.49,1.02-4.75,2.65-6.39h0c1.64-1.63,3.9-2.65,6.38-2.65h22.17v-48.73l-74.61-107.54c-1.17-1.69-2.6-2.97-4.22-3.82-1.6-.83-3.48-1.27-5.57-1.27h0ZM194.61,77.35c-2.05-1.72-2.31-4.77-.59-6.82s4.78-2.31,6.82-.59l19.03,16.02,33.66-46.76c1.56-2.17,4.59-2.67,6.77-1.1,2.17,1.56,2.66,4.59,1.1,6.76l-36.71,51.01-.23.28c-1.72,2.05-4.77,2.31-6.82.59,0,0-23.03-19.39-23.03-19.39ZM228.72,0C248.47,0,266.36,8.01,279.31,20.96c11.33,11.33,18.88,26.45,20.59,43.3h51.5c4.03,0,7.3,3.27,7.3,7.29v192.96h15.25c5.28,0,10.25,1.42,14.53,3.9V120.5c0-7.3,2.97-13.93,7.77-18.73,4.8-4.8,11.43-7.77,18.73-7.77h86.02c4.4,0,8.56,1.02,12.3,2.98,3.72,1.95,6.93,4.79,9.46,8.44l75.59,108.94c1.03,1.26,1.65,2.87,1.65,4.62v118.89c0,7.31-2.98,13.94-7.78,18.73-4.8,4.8-11.42,7.77-18.73,7.77h-14.89c-1.68,14.85-8.41,28.17-18.43,38.19-2.43,2.43-5.05,4.67-7.84,6.68h39.8c2.69,0,4.86,2.18,4.86,4.87s-2.18,4.86-4.86,4.86h-59.86c-5.59,1.58-11.48,2.43-17.58,2.43s-11.99-.85-17.58-2.43h-80.22c-2.69,0-4.86-2.18-4.86-4.86s2.18-4.87,4.86-4.87h60.16c-2.79-2.02-5.41-4.25-7.84-6.68-10.02-10.02-16.76-23.34-18.43-38.19h-15.78c-7.31,0-13.93-2.97-18.73-7.77-.42-.42-.82-.85-1.21-1.3-.17.18-.34.35-.51.53-5.27,5.27-12.56,8.55-20.57,8.55h-124.83c-1.68,14.85-8.41,28.17-18.43,38.19-2.43,2.43-5.05,4.67-7.84,6.68h98.01c2.69,0,4.86,2.18,4.86,4.87s-2.18,4.86-4.86,4.86h-118.07c-5.59,1.58-11.49,2.43-17.58,2.43s-12-.85-17.58-2.43H44.02c-2.69,0-4.86-2.18-4.86-4.86s2.18-4.87,4.86-4.87h103.53c-2.79-2.02-5.41-4.25-7.84-6.68-10.03-10.02-16.76-23.34-18.43-38.19h-42.47c-8.02,0-15.3-3.27-20.57-8.55-5.27-5.27-8.55-12.56-8.55-20.57v-41.62c0-8.01,3.27-15.3,8.55-20.57,5.27-5.27,12.56-8.55,20.57-8.55h19.93V71.55c0-4.03,3.27-7.29,7.3-7.29h51.5c1.7-16.85,9.25-31.96,20.59-43.3C191.07,8.01,208.96,0,228.72,0h0ZM299.9,78.85c-1.7,16.85-9.25,31.96-20.59,43.3-12.95,12.95-30.84,20.96-50.6,20.96s-37.65-8.01-50.6-20.96c-11.33-11.33-18.88-26.45-20.59-43.3h-44.21v185.66h230.78V78.85h-44.21ZM272.43,27.84c-11.19-11.19-26.64-18.11-43.72-18.11s-32.53,6.92-43.72,18.11c-10.33,10.32-17.02,24.29-17.98,39.81.72,1.13,1.13,2.47,1.13,3.9s-.41,2.78-1.13,3.91c.97,15.52,7.66,29.49,17.98,39.81,11.19,11.19,26.65,18.11,43.72,18.11s32.53-6.92,43.72-18.11c10.8-10.8,17.62-25.57,18.08-41.95-.14-.57-.22-1.16-.22-1.77s.08-1.2.22-1.77c-.46-16.37-7.28-31.15-18.08-41.95ZM365.14,418.97c-2.69,0-4.86-2.18-4.86-4.86s2.18-4.87,4.86-4.87h8.86c2.69,0,4.86,2.18,4.86,4.87s-2.18,4.86-4.86,4.86h-8.86ZM273.86,240.14c-2.01,0-3.65-1.63-3.65-3.65s1.63-3.65,3.65-3.65h27.45c2.01,0,3.65,1.63,3.65,3.65s-1.63,3.65-3.65,3.65h-27.45ZM388.47,293.63c0-3.99-1.63-7.62-4.27-10.25s-6.27-4.27-10.25-4.27H78.8c-3.99,0-7.62,1.64-10.25,4.27-2.63,2.63-4.27,6.27-4.27,10.25v41.62c0,3.99,1.64,7.62,4.27,10.25,2.64,2.64,6.27,4.27,10.25,4.27h42.47c1.68-14.85,8.41-28.17,18.43-38.19,11.64-11.64,27.72-18.84,45.49-18.84s33.85,7.2,45.49,18.84c10.02,10.02,16.76,23.34,18.43,38.19h124.83c3.99,0,7.62-1.63,10.25-4.27s4.27-6.27,4.27-10.25v-41.62ZM585.41,305.97v-28.72h-22.17c-.48,0-.92.19-1.23.5h0c-.32.33-.52.77-.52,1.25v25.23c0,.48.2.91.52,1.23h0c.32.32.75.51,1.24.51h22.17ZM3.65,217.65c-2.01,0-3.65-1.63-3.65-3.65s1.63-3.65,3.65-3.65h76.28c2.02,0,3.65,1.63,3.65,3.65s-1.63,3.65-3.65,3.65H3.65ZM21.69,169.01c-2.01,0-3.65-1.63-3.65-3.65s1.63-3.65,3.65-3.65h58.24c2.02,0,3.65,1.63,3.65,3.65s-1.63,3.65-3.65,3.65H21.69ZM430.71,251.56c-2.01,0-3.65-1.63-3.65-3.65s1.63-3.65,3.65-3.65h18.07c2.01,0,3.65,1.63,3.65,3.65s-1.63,3.65-3.65,3.65h-18.07ZM185.19,335.4c5.97,0,11.38,2.43,15.3,6.35h0s0,0,0,0c3.92,3.92,6.35,9.34,6.35,15.32s-2.43,11.4-6.35,15.32-9.34,6.35-15.32,6.35-11.4-2.43-15.32-6.35l-.28-.3c-3.76-3.9-6.07-9.2-6.07-15.01s2.43-11.38,6.36-15.31h0c3.92-3.93,9.34-6.36,15.32-6.36h0ZM193.64,348.62c-2.16-2.15-5.15-3.49-8.45-3.49s-6.28,1.34-8.44,3.5h0s0,0,0,0c-2.15,2.15-3.48,5.13-3.48,8.44s1.25,6.1,3.28,8.24l.22.21c2.16,2.16,5.14,3.5,8.44,3.5s6.28-1.34,8.44-3.5c2.16-2.16,3.5-5.14,3.5-8.44s-1.34-6.28-3.5-8.44h0ZM220.36,321.89c-9-9-21.44-14.57-35.17-14.57s-26.17,5.57-35.17,14.57c-9,9-14.57,21.44-14.57,35.17s5.57,26.17,14.57,35.17,21.44,14.57,35.17,14.57,26.17-5.57,35.17-14.57c9-9,14.57-21.44,14.57-35.17s-5.57-26.17-14.57-35.17ZM494.68,335.4c5.97,0,11.38,2.43,15.3,6.35h0s0,0,0,0c3.92,3.92,6.35,9.34,6.35,15.32s-2.42,11.4-6.35,15.32c-3.92,3.92-9.34,6.35-15.32,6.35s-11.4-2.43-15.32-6.35l-.28-.3c-3.76-3.9-6.07-9.2-6.07-15.01s2.43-11.38,6.36-15.31h0c3.92-3.93,9.34-6.36,15.32-6.36h0ZM503.13,348.62c-2.16-2.15-5.15-3.49-8.45-3.49s-6.28,1.34-8.44,3.5h0s0,0,0,0c-2.15,2.15-3.48,5.13-3.48,8.44s1.25,6.1,3.27,8.24l.22.21c2.16,2.16,5.14,3.5,8.44,3.5s6.28-1.34,8.44-3.5c2.16-2.16,3.5-5.14,3.5-8.44s-1.34-6.28-3.5-8.44h0s0,0,0,0ZM444.94,357.07c0,13.73,5.57,26.17,14.57,35.17,9,9,21.44,14.57,35.17,14.57s26.17-5.57,35.17-14.57c9-9,14.57-21.44,14.57-35.17s-5.57-26.17-14.57-35.17c-9-9-21.44-14.57-35.17-14.57s-26.17,5.57-35.17,14.57c-9,9-14.57,21.44-14.57,35.17ZM543.59,214.11l-52.39-78.69h-55.62v78.69h108.01ZM497.84,127.87l58.68,88.14c.63.82,1,1.85,1,2.96,0,2.69-2.18,4.87-4.86,4.87h-121.94c-2.69,0-4.86-2.18-4.86-4.87v-88.42c0-2.69,2.18-4.86,4.86-4.86h63.08c1.57.01,3.11.78,4.05,2.19Z"/></svg>