<svg id="Layer_1" xmlns="http://www.w3.org/2000/svg" viewBox="0 0 504.92 600" fill="#f8f8f8"><path d="M357.41,353.36c-3.04,0-6.09,0-9.18.42l-2.73.26c-1.21,0-2.41,0-3.57.42l-1.42-5.25c-1.52-5.72-5.31-10.57-10.5-13.43-5.19-2.81-11.32-3.31-16.9-1.36-30.33,10.5-56,31.32-72.52,58.83-3.08,5.03-3.9,11.13-2.26,16.79,1.67,5.79,5.66,10.63,11.02,13.38l4.57,2.36c-.42,1.05-.68,2.15-1.05,3.25s-.89,2.68-1.31,4.04c-.42,1.36-1.05,4.09-1.52,6.14s-.63,2.57-.89,3.94c-.42,2.26-.68,4.51-1,6.82,0,1.15-.31,2.26-.42,3.41s0,3.41-.31,5.25h-21.2c-2.9,0-5.25,2.35-5.25,5.25v52.48c0,2.9,2.35,5.25,5.25,5.25h20.99v11.75H42.55c-2.9,0-5.25,2.35-5.25,5.25v56.15c0,2.9,2.35,5.25,5.25,5.25h20.99c2.9,0,5.25-2.35,5.25-5.25v-20.99h288.63c60.86,0,110.2-49.34,110.2-110.2s-49.34-110.2-110.2-110.2ZM58.29,589.5h-10.5v-45.97h10.5v45.97ZM247.21,563.27H68.79v-19.73h20.99s0,9.87,0,9.87c0,2.9,2.35,5.25,5.25,5.25s5.25-2.35,5.25-5.25v-9.87h15.74v9.87c0,2.9,2.35,5.25,5.25,5.25s5.25-2.35,5.25-5.25v-9.87h15.74v9.87c0,2.9,2.35,5.25,5.25,5.25s5.25-2.35,5.25-5.25v-9.87h15.74v9.87c0,2.9,2.35,5.25,5.25,5.25s5.25-2.35,5.25-5.25v-9.87h15.74s0,9.87,0,9.87c0,2.9,2.35,5.25,5.25,5.25s5.25-2.35,5.25-5.25v-9.87h15.74v9.87c0,2.9,2.35,5.25,5.25,5.25s5.25-2.35,5.25-5.25v-9.87s15.74,0,15.74,0v19.73ZM247.21,510.79h-15.74v-41.98h15.74v41.98ZM248.47,406.94c-.84-2.85-.44-5.92,1.1-8.45,15.27-25.22,38.86-44.32,66.7-54,2.83-.99,5.94-.72,8.55.73,2.75,1.42,4.77,3.94,5.56,6.93l1.21,4.25c-32.2,7.72-59.2,29.57-73.47,59.46l-3.88-1.99c-2.82-1.39-4.91-3.91-5.77-6.93ZM427.89,534.04c-18.65,18.77-44.02,29.29-70.48,29.23h-99.71v-99.71c-.01-47.99,34.17-89.19,81.34-98.03,6.06-1.11,12.21-1.67,18.37-1.68,22.97-.04,45.23,7.92,62.97,22.51,2.57,2.1,5.25,4.36,7.35,6.66,38.94,38.94,38.94,102.07,0,141.01h.16Z"/><path d="M357.41,392.29c-39.36,0-71.26,31.91-71.26,71.26,0,39.36,31.91,71.26,71.26,71.26,39.36,0,71.26-31.91,71.26-71.26-.03-39.35-31.92-71.24-71.26-71.26ZM357.41,524.43c-33.56,0-60.77-27.21-60.77-60.77,0-33.56,27.21-60.77,60.77-60.77,33.52,0,60.71,27.14,60.77,60.66.03,33.59-27.18,60.84-60.77,60.87h0Z"/><path d="M484.79,141.68c2.89,0,5.22-2.35,5.23-5.23V5.23c0-2.89-2.35-5.22-5.23-5.23H20.13c-2.89,0-5.22,2.35-5.23,5.23v131.21c0,2.89,2.35,5.22,5.23,5.23h464.66ZM25.4,10.46h454.12s0,120.75,0,120.75H25.4V10.46Z"/><path d="M80.24,54.92c-1.82,5.1-2.75,10.47-2.75,15.88,0,1.48.07,2.89.19,4.34.35,3.95,1.19,7.84,2.52,11.58h0c8.74,25.16,36.22,38.47,61.38,29.73,13.92-4.84,24.87-15.77,29.71-29.69,1.77-5.12,2.69-10.5,2.71-15.92,0-1.46-.07-2.92-.22-4.38-.36-3.93-1.2-7.81-2.49-11.54h0c-8.78-25.15-36.28-38.41-61.43-29.63-13.88,4.85-24.79,15.75-29.63,29.63ZM125.7,108.54c-13.17-.11-25.32-7.09-32.06-18.41l64.53-.04c-6.79,11.47-19.14,18.49-32.47,18.44ZM163.4,70.84c.05,3-.3,6-1.04,8.91l-73.36.04c-1.44-5.88-1.44-12.01,0-17.89l18.37.04c2.68,10.14,13.07,16.2,23.22,13.52,6.61-1.74,11.78-6.91,13.52-13.52h18.33c.71,2.91,1.03,5.91.96,8.91ZM118.87,61.93h13.8c-1.61,2.18-4.16,3.46-6.86,3.45-2.73,0-5.29-1.28-6.94-3.45ZM158.02,51.43h-46.16l-18.26.15c1.58-2.64,3.47-5.08,5.64-7.27,14.59-14.79,38.42-14.96,53.21-.37,2.28,2.25,4.26,4.78,5.9,7.53l-.33-.04Z"/><path d="M431.69,66.31c-.29-3.96-1.1-7.87-2.41-11.61h0c-8.7-25.17-36.16-38.52-61.34-29.82-14,4.84-25,15.85-29.83,29.86-1.81,5.11-2.73,10.5-2.71,15.92,0,5.4.92,10.75,2.71,15.84h0c8.65,25.16,36.06,38.54,61.22,29.89,14.02-4.82,25.04-15.83,29.88-29.85,1.81-5.11,2.73-10.5,2.71-15.92,0-1.44-.07-2.87-.22-4.3ZM356.95,43.9c14.59-14.79,38.42-14.96,53.21-.37,2.28,2.25,4.26,4.78,5.9,7.53l-64.6.04c1.53-2.62,3.37-5.03,5.49-7.2ZM390.57,61.71c-.25.32-.54.6-.85.85-1.62,1.63-3.82,2.55-6.12,2.56-2.23-.09-4.34-1.04-5.9-2.63-.3-.26-.59-.55-.85-.85l13.73.07ZM383.67,108.39c-13.23-.02-25.49-6.98-32.28-18.33l64.53-.04c-6.76,11.37-19.01,18.35-32.25,18.37ZM421.41,70.65c0,2.99-.36,5.97-1.08,8.87l-73.36.04c-.71-2.93-1.07-5.93-1.08-8.94.04-3.05.44-6.09,1.19-9.05l18.33.22c2.8,10.14,13.3,16.09,23.44,13.28,3.19-.88,6.1-2.58,8.44-4.94h0c2.29-2.32,3.94-5.2,4.79-8.35h18.33c.7,2.9,1.04,5.88,1,8.87Z"/><path d="M239.32,57.7c-7.25,7.25-7.25,19.02,0,26.27,7.25,7.25,19.02,7.25,26.27,0,7.25-7.25,7.25-19.02,0-26.27-7.27-7.23-19.01-7.23-26.27,0ZM258.17,76.55c-3.16,3.16-8.27,3.16-11.43,0-3.16-3.16-3.16-8.27,0-11.43,3.16-3.16,8.27-3.16,11.43,0,3.16,3.16,3.16,8.27,0,11.43h0Z"/><path d="M208.51,199.73v-15.96c.01-2.9-2.33-5.26-5.23-5.27-.01,0-.03,0-.04,0h-16.18c-.56-4.92-2.61-9.55-5.86-13.28-5.35-5.49-12.83-8.36-20.48-7.87-2.89,0-5.22,2.35-5.23,5.23v37.11h-53.21s0-37.11,0-37.11c.01-2.9-2.33-5.26-5.23-5.27-.01,0-.03,0-.04,0-7.27-.39-14.35,2.45-19.33,7.76-4.18,4.95-6.66,11.12-7.05,17.59h-16.1c-2.89,0-5.22,2.35-5.23,5.23l-.04,11.99-43.97-.04C2.37,199.83.01,202.17,0,205.07c0,.01,0,.03,0,.04l.11,84.86c0,2.89,2.35,5.22,5.23,5.23l45.16-.04,20.22,81.01c.59,2.33,2.68,3.97,5.08,3.97h21.23c1.4.01,2.75-.53,3.75-1.52.99-1,1.54-2.35,1.52-3.75v-6.31s.41.41.41.41c14.5,14.46,37.97,14.46,52.47,0l.37-.37.04,6.35c0,2.89,2.35,5.22,5.23,5.23h21.23c1.39,0,2.73-.57,3.71-1.56.59-.57,1.03-1.27,1.3-2.04l20.04-60.11h38.67c2.9.01,5.26-2.33,5.27-5.23,0-.01,0-.03,0-.04v-15.96l248.66-.04c1.38,0,2.7-.55,3.67-1.52.99-.98,1.55-2.32,1.56-3.71l-.04-85.01c0-2.89-2.35-5.22-5.23-5.23H208.51ZM166.05,168.26c2.81.44,5.39,1.79,7.35,3.86,2.47,3.1,3.72,6.99,3.53,10.95-.16,1.47.32,2.94,1.3,4.04.99,1.13,2.43,1.78,3.93,1.78h15.96l-.11,32.1h-31.99l.04-52.73ZM10.61,284.67v-74.21s38.74,0,38.74,0v74.21H10.61ZM91.8,369.64h-11.87s-20.08-80.34-20.08-80.34v-96.48s16.03,0,16.03,0c1.47,0,2.87-.62,3.86-1.71.98-1.04,1.48-2.43,1.41-3.86-.4-5.49,1.18-10.94,4.45-15.36,1.69-1.82,3.89-3.09,6.31-3.64l-.11,201.38ZM102.71,316.5l-.41.41v-21.74l53.25.04-.04,21.71-.37-.37c-14.49-14.45-37.93-14.46-52.43-.04ZM147.76,361.55c-10.39,10.39-27.24,10.39-37.63,0-10.39-10.39-10.39-27.24,0-37.63,10.39-10.39,27.24-10.39,37.63,0h0c10.36,10.4,10.36,27.22,0,37.63ZM240.53,305.89h-37.11c-2.25.02-4.23,1.47-4.94,3.6l-20.04,60.11h-12.25s.04-95.7.04-95.7h74.21l.07,31.99ZM494.38,284.7h-20.41l.11-21.34c0-2.91-2.36-5.27-5.27-5.27s-5.27,2.36-5.27,5.27l.04,21.41h-21.37v-42.3c.01-2.9-2.33-5.26-5.23-5.27-.01,0-.03,0-.04,0-2.89,0-5.22,2.35-5.23,5.23l.04,42.34h-21.37l-.04-21.41c-.22-2.89-2.75-5.05-5.64-4.83-2.58.2-4.63,2.25-4.83,4.83l-.11,21.34-21.26.04v-42.3c0-2.89-2.35-5.22-5.23-5.23-2.9-.01-5.26,2.33-5.27,5.23,0,.01,0,.03,0,.04v42.3s-21.37,0-21.37,0l.04-21.41c0-2.91-2.36-5.27-5.27-5.27s-5.27,2.36-5.27,5.27l.04,21.41-21.45-.07-.15-42.15c.01-2.9-2.33-5.26-5.23-5.27-.01,0-.03,0-.04,0-2.89,0-5.22,2.35-5.23,5.23l.22,42.23-21.34.04-.04-21.41c-.22-2.89-2.75-5.05-5.64-4.83-2.58.2-4.63,2.25-4.83,4.83l-.04,21.41-21.34-.04v-42.3c0-2.89-2.35-5.22-5.23-5.23-2.9-.01-5.26,2.33-5.27,5.23,0,.01,0,.03,0,.04l-.07,21h-79.71c-2.89,0-5.22,2.35-5.23,5.23l.15,16.18h-53.21s0-74.21,0-74.21h53.21l-.04,15.99c0,1.39.57,2.73,1.56,3.71.98.99,2.32,1.55,3.71,1.56l42.49-.04c1.38,0,2.7-.55,3.67-1.52.99-.98,1.55-2.32,1.56-3.71v-15.96l285.76-.48-.04,74.47Z"/></svg>