<svg xmlns="http://www.w3.org/2000/svg" viewBox="0 0 571.65 600.58" fill="#f8f8f8"><path d="M408.36,386.62c3.98,0,7.21-3.23,7.21-7.21v-36.04c0-3.98-3.23-7.21-7.21-7.21s-7.21,3.23-7.21,7.21v36.04c0,3.98,3.23,7.21,7.21,7.21Z"/><path d="M408.36,458.71c3.98,0,7.21-3.23,7.21-7.21v-36.04c0-3.98-3.23-7.21-7.21-7.21s-7.21,3.23-7.21,7.21v36.04c0,3.98,3.23,7.21,7.21,7.21Z"/><path d="M254.15,179.3l35.49,6.27c3.92.72,7.67-1.87,8.39-5.79.72-3.92-1.87-7.67-5.79-8.39-.03,0-.07-.01-.1-.02l-35.49-6.27c-3.93-.66-7.65,1.98-8.31,5.9-.66,3.89,1.93,7.58,5.8,8.29Z"/><path d="M180.1,348.38c3.98.03,7.23-3.17,7.26-7.15h0s.28-36.04.28-36.04c.03-3.98-3.17-7.23-7.15-7.26s-7.23,3.17-7.26,7.15h0l-.28,36.04c-.03,3.98,3.17,7.23,7.15,7.26h0Z"/><path d="M179.55,420.46c3.98.03,7.23-3.17,7.26-7.15h0s.28-36.04.28-36.04c.03-3.98-3.17-7.23-7.15-7.26-3.98-.03-7.23,3.17-7.26,7.15h0l-.28,36.04c-.03,3.98,3.17,7.23,7.15,7.26h0Z"/><path d="M241.43,455.6l35.42,6.67c3.91.72,7.68-1.86,8.4-5.78.72-3.9-1.84-7.65-5.73-8.39l-35.42-6.67c-3.92-.71-7.67,1.89-8.38,5.8-.71,3.88,1.84,7.61,5.72,8.36h0Z"/><path d="M178.64,447.07l2.98-2.72,24.38,4.59c3.91.72,7.68-1.86,8.4-5.78.72-3.9-1.84-7.65-5.73-8.39l-27.92-5.25c-2.23-.42-4.52.23-6.19,1.76l-5.64,5.15c-2.91,2.72-3.07,7.28-.35,10.19,2.67,2.87,7.15,3.07,10.07.46Z"/><path d="M351.94,393.07c3.98,0,7.21-3.23,7.21-7.21v-36.04c0-3.98-3.23-7.21-7.21-7.21s-7.21,3.23-7.21,7.21v36.04c0,3.98,3.23,7.21,7.21,7.21Z"/><path d="M380.4,514.29l32.83-29.31h0c4.35-3.72,2.19-11.49-3.54-12.38l-23.92-4.5c-3.91-.72-7.68,1.86-8.4,5.78-.72,3.9,1.84,7.65,5.73,8.39l9.52,1.79-21.83,19.48c-2.96,2.67-3.19,7.22-.53,10.18,2.65,2.94,7.16,3.19,10.13.58h0Z"/><path d="M312.27,468.93l38.38,6.97c3.92.71,7.67-1.89,8.38-5.8.08-.42.12-.85.12-1.28v-46.91c0-3.98-3.22-7.21-7.21-7.21-.08,0-.15,0-.23,0-3.96.23-7.05,3.54-6.99,7.51v38.17l-29.56-5.56c-3.61-.73-7.21,1.32-8.42,4.8-1.24,3.78.83,7.85,4.61,9.09.29.1.6.17.9.23Z"/><path d="M143.15,568.41l194.12,31.69c10.7,1.77,21.62-1.46,29.63-8.78l47.04-42.75,23.28,4.2c10.05,1.82,20.39-.77,28.39-7.11l92.56-73.27c8.53-6.73,13.5-17,13.47-27.87v-193.93c.02-17.25-12.37-32.01-29.35-35l-79.26-14.04v-126.31c-.05-16.87-11.91-31.41-28.44-34.83L239.97.72c-11.11-2.26-22.63.9-31.02,8.52l-83.97,76.35c-7.41,6.74-11.63,16.29-11.64,26.3v29.61c-6.03.89-11.74,3.31-16.56,7.03L13.82,212.63C5.07,219.34-.04,229.74,0,240.75v203.26c0,17.19,12.3,31.93,29.22,34.98l84.12,15.21v39.12c-.05,17.44,12.59,32.32,29.81,35.08ZM359.15,578.88v-40.22l36.92,6.68-36.92,33.55ZM557.24,250.61v193.93c.01,6.45-2.94,12.56-8.01,16.56l-90.77,71.85v-221.67c4.13-1.16,8.02-3.06,11.48-5.61l85.63-63.29c1.11,2.6,1.68,5.4,1.68,8.22ZM448.63,75.27v123.75l-42-7.43c-3.96-.7-8.02.28-11.22,2.71l-36.25,27.48v-23.93l1.49.26c3.93.66,7.65-1.98,8.31-5.9.66-3.89-1.93-7.58-5.8-8.29l-3.99-.71v-44c2.6-1.23,5.03-2.77,7.25-4.59l81.03-66.3c.79,2.23,1.19,4.59,1.2,6.96h0ZM218.65,19.9c4.99-4.52,11.83-6.4,18.43-5.06l194.64,39.72c2.33.48,4.56,1.35,6.59,2.57l-81.05,66.32c-4.7,3.82-10.8,5.46-16.78,4.5l-204.04-33.31L218.65,19.9ZM127.75,111.88c0-1.34.14-2.67.4-3.99l210.02,34.29c2.17.36,4.36.5,6.56.42v38.05l-17.08-3.02c-3.92-.69-7.66,1.93-8.35,5.85-.01.07-.02.15-.03.22-.47,3.94,2.26,7.55,6.18,8.19l19.29,3.4v31.96c-1.27,0-2.54-.11-3.79-.33l-152.67-28.27c.12-.52.19-1.06.2-1.59l.22-29.24c1.39.02,29.71,5.37,31.23,5.33,3.98,0,7.21-3.23,7.21-7.21,0-3.5-2.52-6.5-5.96-7.1l-38.32-6.53c-3.92-.67-7.65,1.97-8.32,5.89-.06.38-.1.76-.1,1.14l-.37,36.67-32.63-6.04,13.86-7.79c3.24-1.76,4.68-5.64,3.37-9.09-1.48-3.7-5.68-5.49-9.37-4.01-.29.12-.58.25-.85.41l-20.68,11.62v-69.23ZM127.75,201.85c1,.35,2.03.63,3.07.83l207.5,38.43c2.12.39,4.26.58,6.41.58h0c0,3.99,3.23,7.22,7.21,7.22s7.21-3.23,7.21-7.21v-3.04c2.53-1.11,4.92-2.51,7.12-4.18l34.88-26.46v27.23c0,3.98,3.23,7.21,7.21,7.21s7.21-3.23,7.21-7.21v-27.44l124.22,22c2.04.37,4.02,1.03,5.87,1.97l-84.29,62.3c-4.68,3.44-10.56,4.82-16.28,3.81l-29.52-5.29v-21.31c0-3.98-3.23-7.21-7.21-7.21s-7.21,3.23-7.21,7.21h0v18.74l-42-7.52v-4.77c0-3.98-3.23-7.21-7.21-7.21s-7.21,3.23-7.21,7.21h0v2.18l-156.69-28.03.14-18.79c.03-3.98-3.17-7.23-7.15-7.26h-.06c-3.96,0-7.18,3.19-7.21,7.15l-.12,16.32-45.89-8.21v-39.25ZM127.75,255.75l45.78,8.19-.04,5.09c-.03,3.98,3.17,7.23,7.15,7.26,3.98.03,7.23-3.17,7.26-7.15l.02-2.63,156.8,28.06v19.2c0,3.98,3.23,7.21,7.21,7.21s7.21-3.23,7.21-7.21v-16.63l42,7.52v2.66c0,3.98,3.23,7.21,7.21,7.21s7.21-3.23,7.21-7.21v-.08l26.98,4.83c.5.09.99.16,1.49.23v226.61c-1.42.04-2.84-.07-4.24-.32l-80.65-14.59v-30.02c0-3.98-3.23-7.21-7.21-7.21s-7.21,3.23-7.21,7.21v27.41l-206.58-37.36,13.87-12.66c2.94-2.68,3.15-7.24.46-10.18-2.68-2.94-7.24-3.15-10.18-.46l-14.55,13.28v-218.27ZM127.75,496.81l216.98,39.24v50.02c-1.71.14-3.44.07-5.13-.21l-194.12-31.69c-10.23-1.64-17.75-10.49-17.72-20.85v-36.51ZM105.59,159.93c2.3-1.77,4.93-3.06,7.75-3.77v82.36l-88.87-15.9,81.12-62.69ZM31.79,464.81c-10.06-1.82-17.37-10.57-17.37-20.79v-203.26c0-1.74.22-3.48.64-5.17l98.28,17.58v226.38l-81.55-14.74Z"/></svg>