<svg xmlns="http://www.w3.org/2000/svg" viewBox="0 0 468.55 600.37" fill="#f8f8f8"><path d="M80.57,113.05l17.51,29.43,47.83,10.91-32.23,36.92,4.31,48.85-45.04-19.28-45.04,19.28,4.31-48.85L0,153.39l47.83-10.91,25.12-42.12,7.61,12.69ZM84.88,154.79l-11.93-19.92-13.83,23.09-26.26,6.09,17.76,20.3-2.41,26.9,24.87-10.66,24.87,10.66-2.41-26.9,17.76-20.3-26.26-6.09-2.16-3.17ZM403.08,113.05l17.64,29.43,47.83,10.91-32.23,36.92,4.31,48.85-45.04-19.28-45.04,19.28,4.31-48.85-32.23-36.92,47.83-10.91,25.12-42.12,7.49,12.69ZM407.4,154.79l-11.93-19.92-13.83,23.22-26.26,6.09,17.76,20.3-2.41,26.9,24.87-10.66,24.87,10.66-2.41-26.9,17.76-20.3-26.26-6.09-2.16-3.3ZM241.82,12.69l17.51,29.43,47.83,10.91-32.23,36.92,4.31,48.85-45.04-19.16-45.04,19.28,4.31-48.85-32.23-36.92,47.83-10.91L234.21,0l7.61,12.69ZM246.14,54.43l-11.93-19.92-13.83,23.22-26.26,5.96,17.76,20.3-2.41,26.9,24.87-10.66,24.87,10.66-2.41-26.9,17.76-20.3-26.26-5.96-2.16-3.3ZM234.21,178.26c-34.51,0-62.42,27.91-62.42,62.42s27.91,62.42,62.42,62.42,62.42-27.91,62.42-62.42-27.91-62.42-62.42-62.42h0ZM177.5,183.97c31.34-31.34,82.09-31.34,113.43,0,36.16,36.16,29.69,96.3-13.07,124.08,28.29,2.03,54.43,15.86,72.19,37.68l2.03,2.41v65.21H116.47v-65.21l2.03-2.41c17.76-21.82,43.77-35.65,72.19-37.68-42.76-27.79-49.35-87.92-13.19-124.08h0ZM161.64,333.68c-10.4,4.95-19.79,12.18-27.4,20.81v41.11h199.95v-41.11c-7.61-8.63-17-15.73-27.4-20.81-10.91-5.2-23.22-8.12-36.16-8.12h-72.7c-13.07,0-25.37,2.92-36.29,8.12h0ZM34.89,474.26l46.18-26.64,7.74,13.32c19.16-11.04,38.19-22.08,57.35-33.11h116.47c19.16,0,34.38,15.73,34.13,35.02h13.83l66.1-38.06c24.99-14.46,55.82,8.12,48.34,36.03-2.16,7.99-7.23,15.22-14.21,20.68l-89.07,68.51h-166.84l-11.04,6.34,7.49,12.94-53.92,31.08-70.16-121.55,7.61-4.57ZM74.6,471.85l-23.22,13.45,52.53,90.97,23.22-13.45-52.53-90.97ZM277.98,467.91c3.93-10.02-3.3-22.2-15.35-22.2h-111.78l-53.16,30.7,37.3,64.71,15.22-8.75h165.32l84.24-64.83c13.45-10.28,9.39-25.63-2.79-28.8-3.81-1.01-7.99-.63-11.67,1.52l-70.29,40.6h-23.98c-6.22,9.52-16.87,15.48-28.55,15.48h-70.16v-17.76h70.29c6.85-.13,12.94-4.44,15.35-10.66h0Z"/></svg>