<svg xmlns="http://www.w3.org/2000/svg" viewBox="0 0 599.89 586.37"><defs><style>.cls-1{fill:#f8f8f8;fill-rule:evenodd;stroke-width:0px;}</style></defs><path class="cls-1" d="M150.98,0c20.57.05,37.23,16.71,37.28,37.28v23.68h74.4v-21.86c0-20.59,16.69-37.28,37.28-37.28s37.28,16.69,37.28,37.28v21.86h74.4v-20.05c-.01-20.59,16.67-37.28,37.25-37.3,20.59-.01,37.28,16.67,37.3,37.25v20.09h105.74c4.42,0,8,3.58,8,8v509.42c0,4.42-3.58,8-8,8H8c-4.42,0-8-3.58-8-8V68.93c0-4.42,3.58-8,8-8h105.71v-23.66c.05-20.57,16.71-37.23,37.28-37.28ZM443.12,439.16c-2.76,8.04,1.51,16.8,9.55,19.56,8.04,2.76,16.8-1.51,19.56-9.55,1.42-4.14,1.02-8.68-1.11-12.5l42.95-42.3c1.79-1.76,1.81-4.64.05-6.43-1.76-1.79-4.64-1.81-6.43-.05h0l-43.12,42.47c-5.2-2.6-11.43-2.04-16.08,1.44l-20.64-15.01c-1.95-1.58-4.81-1.28-6.38.67-1.58,1.95-1.28,4.81.67,6.38.12.1.25.19.38.28l20.61,15.05ZM415.95,362.73c1.17,2.22.32,4.97-1.9,6.14-2.11,1.11-4.72.41-5.98-1.62l-2.58-4.47c-11.68,7.51-21.61,17.44-29.12,29.12l4.49,2.59c2.15,1.31,2.83,4.11,1.52,6.26-1.27,2.08-3.94,2.79-6.08,1.62l-4.48-2.59c-6.39,12.33-10.03,25.89-10.67,39.76h5.16c2.52.1,4.48,2.22,4.39,4.74-.09,2.39-2,4.3-4.39,4.39h-5.16c.64,13.87,4.28,27.44,10.67,39.76l4.48-2.59c2.17-1.26,4.96-.52,6.22,1.66,1.26,2.17.52,4.96-1.66,6.22l-4.49,2.59c7.51,11.68,17.45,21.6,29.12,29.12l2.58-4.47c1.33-2.13,4.13-2.78,6.26-1.46,2.03,1.26,2.73,3.87,1.62,5.98l-2.59,4.49c12.33,6.39,25.9,10.03,39.77,10.67v-5.16c.1-2.52,2.22-4.48,4.74-4.39,2.39.09,4.3,2,4.39,4.39v5.16c13.87-.64,27.44-4.28,39.77-10.67l-2.59-4.49c-1.25-2.17-.5-4.95,1.67-6.2s4.95-.5,6.2,1.67h0l2.59,4.47c11.68-7.51,21.61-17.45,29.12-29.12l-4.47-2.59c-2.17-1.25-2.92-4.03-1.67-6.2s4.03-2.92,6.2-1.67l4.49,2.59c6.39-12.33,10.03-25.9,10.67-39.77h-5.16c-2.52-.1-4.48-2.22-4.39-4.74.09-2.39,2-4.3,4.39-4.39h5.16c-.64-13.87-4.28-27.44-10.67-39.77l-4.49,2.59c-2.26,1.09-4.98.14-6.07-2.13-.98-2.04-.31-4.5,1.57-5.75l4.47-2.58c-7.52-11.68-17.45-21.61-29.14-29.12l-2.59,4.47c-1.25,2.17-4.03,2.92-6.2,1.67s-2.92-4.03-1.67-6.2h0l2.59-4.49c-12.33-6.39-25.9-10.03-39.77-10.67v5.16c-.1,2.52-2.22,4.48-4.74,4.39-2.39-.09-4.3-2-4.39-4.39v-5.16c-13.87.64-27.44,4.28-39.77,10.67l2.59,4.49h-.02ZM462.11,439.68c-2.45-2.45-6.41-2.45-8.86,0s-2.45,6.41,0,8.86,6.41,2.45,8.86,0h0c2.44-2.45,2.44-6.41,0-8.86ZM457.68,331.52c-62.18,0-112.59,50.41-112.59,112.59s50.41,112.59,112.59,112.59,112.59-50.41,112.59-112.59c0-62.18-50.41-112.58-112.59-112.59ZM457.68,301.87c53.05-.02,101.71,29.49,126.21,76.54v-200.33H15.96v392.31h376.19c-69.74-36.18-96.96-122.04-60.78-191.79,24.47-47.17,73.18-76.77,126.31-76.76v.03ZM583.89,509.81c-13.54,25.93-34.72,47.07-60.66,60.58h60.66v-60.58ZM546.97,354.82c-49.31-49.31-129.27-49.31-178.58,0-49.31,49.31-49.31,129.27,0,178.58,49.31,49.31,129.27,49.31,178.58,0,49.31-49.31,49.32-129.26.01-178.57,0,0,0,0-.01-.01ZM411.6,76.92h-74.4v21.86c0,20.59-16.69,37.28-37.28,37.28s-37.28-16.69-37.28-37.28v-21.86h-74.4v20.05c0,20.59-16.69,37.28-37.28,37.28-20.59,0-37.28-16.69-37.28-37.28h0v-20.05H15.96v85.2h567.93v-85.2h-97.74v23.68c.01,20.59-16.67,37.28-37.25,37.3-20.59.01-37.28-16.67-37.3-37.25v-23.72ZM463.91,25.88c-8.37-8.29-21.87-8.24-30.17.13-3.94,3.97-6.16,9.33-6.18,14.92v59.69c.55,11.77,10.54,20.86,22.3,20.31,11-.51,19.79-9.31,20.31-20.31v-59.71c-.01-5.64-2.27-11.05-6.27-15.02ZM278.6,68.9v29.88c.55,11.77,10.54,20.86,22.3,20.31,11-.51,19.8-9.31,20.31-20.31v-59.69c-.55-11.77-10.54-20.86-22.3-20.31-11,.51-19.8,9.31-20.31,20.31v29.82ZM47.49,325.71c-4.42,0-8,3.58-8,8h0v70.06c0,4.42,3.58,8,8,8h69.32c4.42,0,8-3.58,8-8v-70.08c0-4.42-3.58-8-8-8H47.49ZM108.81,341.7h-53.34v54.11h53.36v-54.13l-.02.03ZM47.49,451.12c-4.42,0-8,3.58-8,8v70.03c0,4.42,3.58,8,8,8h69.32c4.42,0,8-3.58,8-8v-70.08c0-4.42-3.58-8-8-8l-69.32.05ZM108.81,467.08h-53.34v54.07h53.36v-54.09l-.02.03ZM192.68,451.09c-4.42,0-8,3.58-8,8v70.06c0,4.42,3.58,8,8,8h69.32c4.42,0,8-3.58,8-8v-70.08c0-4.42-3.58-8-8-8l-69.32.02ZM254,467.05h-53.35v54.09h53.36v-54.09h-.01ZM192.68,325.74c-4.42,0-8,3.58-8,8h0v70.03c0,4.42,3.58,8,8,8h69.32c4.42,0,8-3.58,8-8v-70.08c0-4.42-3.58-8-8-8h0l-69.32.05ZM254,341.74h-53.35v54.11h53.36v-54.17.06ZM483.04,200.33c-4.42,0-8,3.58-8,8v70.06c0,4.42,3.58,8,8,8h69.32c4.42,0,8-3.58,8-8v-70.08c0-4.42-3.58-8-8-8h-69.32ZM544.36,216.33h-53.33v54.11h53.33v-54.13.03ZM337.84,200.33c-4.42,0-8,3.58-8,8h0v70.06c0,4.42,3.58,8,8,8h69.32c4.42,0,8-3.58,8-8v-70.08c0-4.42-3.58-8-8-8h-69.32ZM399.16,216.33h-53.32v54.11h53.36v-54.13l-.04.03ZM192.64,200.33c-4.42,0-8,3.58-8,8h0v70.06c0,4.42,3.58,8,8,8h69.32c4.42,0,8-3.58,8-8h0v-70.08c0-4.42-3.58-8-8-8h-69.32ZM253.96,216.33h-53.31v54.11h53.36v-54.13l-.05.03ZM108.78,262.79v7.65h-53.31v-54.13h48.16c4.42,0,8-3.58,8-8s-3.58-8-8-8h-56.15c-4.42,0-8,3.58-8,8h0v70.09c0,4.42,3.58,8,8,8h69.32c4.42,0,8-3.58,8-8h0v-15.63c.28-4.41-3.06-8.21-7.47-8.5-4.41-.28-8.21,3.06-8.5,7.47-.02.34-.02.69,0,1.03l-.07.03ZM135.51,207.53l-47.89,38-10.94-11.19c-2.83-3.37-7.85-3.8-11.21-.97-3.37,2.83-3.8,7.85-.97,11.21.25.29.51.57.8.82l15.77,16.12c2.82,3.1,7.57,3.5,10.87.9l53.53-42.45c3.21-3.03,3.36-8.09.33-11.31-2.67-2.83-7-3.33-10.25-1.17l-.03.03ZM150.98,15.96c-11.77.03-21.3,9.56-21.33,21.33v59.69c.55,11.77,10.54,20.86,22.3,20.31,11-.51,19.8-9.31,20.31-20.31v-59.71c-.04-11.74-9.54-21.25-21.28-21.31Z"/></svg>