<svg xmlns="http://www.w3.org/2000/svg" viewBox="0 0 592.48 600.37" fill="#f8f8f8"><path d="M124.86,198.1v-9.06h18.11v9.06c0,13.72,25.75,21.48,40.24,10.35,3.62-2.85,5.95-6.47,5.95-10.35,0-11.39-12.42-13.59-24.71-15.79-19.8-3.62-39.59-7.25-39.59-33.64,0-17.47,15.27-29.89,32.09-32.99v-17.21h18.11v17.21c16.82,3.11,32.09,15.53,32.09,32.99v9.06h-18.11v-9.06c0-13.72-25.75-21.48-40.37-10.35-3.62,2.85-5.82,6.47-5.82,10.35,0,11.26,12.42,13.59,24.71,15.79,19.8,3.62,39.59,7.25,39.59,33.64,0,17.47-15.27,29.89-32.09,32.99v17.34h-18.11v-17.34c-16.82-3.11-32.09-15.53-32.09-32.99h0ZM48.65,61.46l-6.34-6.47,12.81-12.81,30.54,30.54-12.81,12.81-24.2-24.07ZM182.83,334.34h9.06v18.11h-53.05v-18.11h43.99ZM213.75,302h9.06v18.11h-113.6v-18.11h104.55ZM156.95,9.06V0h17.99v43.35h-17.99V9.06ZM322.96,156.95h9.06v17.99h-42.44v-17.99h33.38ZM270.56,48.65l6.47-6.47,12.81,12.81-28.21,28.21-12.81-12.81,21.74-21.74ZM9.06,175.07H0v-18.11h39.98v18.11H9.06ZM166.01,86.95c-45.93,0-83.33,37.26-83.33,83.33,0,49.04,28.6,48,39.33,92.26h87.73c10.74-44.77,39.46-43.22,39.46-92.26.13-46.06-37.14-83.33-83.2-83.33h0ZM94.33,98.6c39.59-39.59,103.77-39.59,143.36,0,18.37,18.37,29.76,43.73,29.76,71.68,0,59-33.25,56.54-41.28,102.87l-1.29,7.5h-117.75l-1.29-7.5c-8.02-45.93-41.28-43.86-41.28-102.87,0-28.08,11.39-53.31,29.76-71.68h0ZM61.59,438.25l-8.67,2.33-4.66-17.47,8.67-2.33c195.25-51.5,362.42-178.3,464.51-352.59l-30.67-14.1L561.68,3.88l8.15,86.43-31.7-14.62C433.46,255.03,262.15,385.32,61.59,438.25h0ZM547.71,48.78l-1.16-12.03-19.8,14.1,22.13,10.09-1.16-12.16ZM160.06,461.67v53.31h44.77v-87.34c25.1-12.68,47.36-24.84,71.29-39.72l13.84-8.67v135.73h44.9v-167.04c24.58-18.5,47.36-37.14,70-58.1l15.14-14.1v239.24h44.9V228.24l2.33-2.59c23.81-27.17,46.19-56.41,66.38-86.43l16.56-24.71v400.46h42.31v85.4H32.61v-85.4h42.31v-35.97c26.4-8.28,46.97-15.27,72.72-25.75l12.42-5.05v13.46ZM160.06,533.09v31.31h-85.14v-31.31h-24.2v49.17h523.38v-49.17h-24.2v31.31h-85.14v-31.31h-44.9v31.31h-85.14v-31.31h-44.9v31.31h-85.14v-31.31h-44.64ZM141.94,546.16v-71.16c-15.79,6.08-32.99,12.16-48.91,17.34v53.83h48.91ZM531.92,546.16V173.12c-5.18,7.25-10.48,14.36-15.79,21.35-10.61,13.72-21.61,27.3-32.99,40.5v311.18h48.78ZM353.11,546.16h48.91v-229.41c-15.92,14.1-31.83,27.04-48.91,40.11v189.3ZM271.98,546.16v-134.57c-16.04,9.57-32.09,18.5-48.91,27.04v107.52h48.91Z"/></svg>